<svg width="200px" id="Layer_1" data-name="Layer 1" xmlns="http://www.w3.org/2000/svg" viewBox="0 0 1028.64 130.45"><defs><style>.cls-1{fill:#333;}.cls-2{fill:#3c98c9;}.cls-3{fill:#48b7da;}</style></defs><title>WF-colored</title><path class="cls-1" d="M110.68,39.87h27l15,54.93,16.61-54.93h21L207.05,94.8l15-54.93h26.46l-29.38,85.6H195.37L179.31,77.65l-15.88,47.82H140.07Z"/><path class="cls-1" d="M242.68,82.58a46.65,46.65,0,0,1,3.38-17.8,44.84,44.84,0,0,1,9.39-14.51A43.44,43.44,0,0,1,270,40.51,48,48,0,0,1,288.67,37a47.32,47.32,0,0,1,18.62,3.56,43.67,43.67,0,0,1,14.42,9.76,45,45,0,0,1,9.39,14.51,48.53,48.53,0,0,1,0,35.59,44.09,44.09,0,0,1-23.81,24.37,46.31,46.31,0,0,1-18.62,3.65A47,47,0,0,1,270,124.74a43.87,43.87,0,0,1-23.9-24.37A46.6,46.6,0,0,1,242.68,82.58Zm46,23a18.85,18.85,0,0,0,15.24-7.12,22.17,22.17,0,0,0,3.92-7.39,28.76,28.76,0,0,0,0-17,21.19,21.19,0,0,0-3.92-7.3,19.74,19.74,0,0,0-6.48-5.11,19.27,19.27,0,0,0-8.76-1.92,19.87,19.87,0,0,0-8.85,1.92,18.58,18.58,0,0,0-6.48,5.11,23.42,23.42,0,0,0-3.92,7.3,27,27,0,0,0,0,17,24.59,24.59,0,0,0,3.92,7.39,18.16,18.16,0,0,0,6.48,5.21A20,20,0,0,0,288.67,105.57Z"/><path class="cls-1" d="M339.05,39.87h25.19l.91,10.77a39.31,39.31,0,0,1,9-8.4q5.76-4,14.88-4a41.76,41.76,0,0,1,5.93.36,23.22,23.22,0,0,1,4.84,1.28l-4.2,23.18a31.49,31.49,0,0,0-9.49-1.28q-9.31,0-15.06,5.57t-5.75,15.78v42.35H339.05Z"/><path class="cls-1" d="M404.78,3.73h26.28V66.88l26.1-27H486.9L456.24,71.44l34.86,54H460.62l-21.9-36.14-7.66,7.85v28.29H404.78Z"/><path class="cls-1" d="M504.8,60.49H490.93V39.87H504.8V35.49a37.42,37.42,0,0,1,3-15.7,31.57,31.57,0,0,1,7.93-10.86A32.83,32.83,0,0,1,527,2.55,40.44,40.44,0,0,1,539.85.45a51.93,51.93,0,0,1,14,2,34.45,34.45,0,0,1,13,6.94q-2.75,4.2-5.57,8.3T555.72,26A21.76,21.76,0,0,0,543,21.8a11.51,11.51,0,0,0-8.76,3.47q-3.29,3.47-3.29,9.85v4.75h20.26V60.49H530.9v65H504.8Z"/><path class="cls-1" d="M550.78,82.58a46.83,46.83,0,0,1,3.37-17.8,45,45,0,0,1,9.4-14.51,43.34,43.34,0,0,1,14.51-9.76A48,48,0,0,1,596.77,37a47.32,47.32,0,0,1,18.62,3.56,43.52,43.52,0,0,1,14.41,9.76,44.87,44.87,0,0,1,9.4,14.51,48.53,48.53,0,0,1,0,35.59,44.18,44.18,0,0,1-23.81,24.37,46.31,46.31,0,0,1-18.62,3.65,46.92,46.92,0,0,1-18.71-3.65,43.93,43.93,0,0,1-23.91-24.37A46.78,46.78,0,0,1,550.78,82.58Zm46,23A18.85,18.85,0,0,0,612,98.45a22.17,22.17,0,0,0,3.92-7.39,28.76,28.76,0,0,0,0-17,21.19,21.19,0,0,0-3.92-7.3,20,20,0,0,0-6.48-5.11,19.3,19.3,0,0,0-8.76-1.92,19.84,19.84,0,0,0-8.85,1.92,18.58,18.58,0,0,0-6.48,5.11,23.22,23.22,0,0,0-3.92,7.3,26.78,26.78,0,0,0,0,17,24.36,24.36,0,0,0,3.92,7.39,18.16,18.16,0,0,0,6.48,5.21A20,20,0,0,0,596.77,105.57Z"/><path class="cls-1" d="M647.59,39.87h25.18l.91,10.77a39.37,39.37,0,0,1,9-8.4q5.74-4,14.87-4a41.76,41.76,0,0,1,5.93.36,22.9,22.9,0,0,1,4.84,1.28l-4.2,23.18a31.44,31.44,0,0,0-9.49-1.28q-9.3,0-15,5.57t-5.75,15.78v42.35H647.59Z"/><path class="cls-1" d="M824,73.78a17.44,17.44,0,0,1,1.34-6.3,19,19,0,0,1,3.91-5.89,20.37,20.37,0,0,1,6.49-4.44,21.89,21.89,0,0,1,9.06-1.75,20.52,20.52,0,0,1,8.85,1.75,19.82,19.82,0,0,1,6.18,4.44,18.51,18.51,0,0,1,3.71,5.89,16.91,16.91,0,0,1,.54,1.61,3.75,3.75,0,0,1-3.68,4.69H834.87a3.78,3.78,0,0,0-3.79,3.79v9.21a3.79,3.79,0,0,0,3.79,3.79h48.69a3.8,3.8,0,0,0,3.8-3.79v-.59a68,68,0,0,0-2.74-19.81,44.08,44.08,0,0,0-8.12-15.51,37.64,37.64,0,0,0-13.23-10.13A43,43,0,0,0,845,37.09a44.48,44.48,0,0,0-18.62,3.74A42.26,42.26,0,0,0,813,50.34l0,0L769.7,97a28.91,28.91,0,0,1-7.3,5.75,22.21,22.21,0,0,1-11.32,2.65,17.62,17.62,0,0,1-8.48-2,21,21,0,0,1-6.39-5.2,22.45,22.45,0,0,1-4-7.3,25.89,25.89,0,0,1-1.38-8.3,27,27,0,0,1,1.38-8.67,21.43,21.43,0,0,1,4-7.21,20.61,20.61,0,0,1,6.39-5,18.29,18.29,0,0,1,8.48-1.92q6.95,0,11.14,2.56a32.54,32.54,0,0,1,4.57,3.33,3.76,3.76,0,0,0,5.2-.36L782.72,53.7a3.81,3.81,0,0,0-.22-5.4,44.38,44.38,0,0,0-11.7-7.52A49.49,49.49,0,0,0,750.54,37,47.48,47.48,0,0,0,732,40.51a44.34,44.34,0,0,0-14.6,9.76,45.72,45.72,0,0,0-13,32.31A48.75,48.75,0,0,0,707.74,101a43.52,43.52,0,0,0,9.4,14.51A41.6,41.6,0,0,0,731.65,125a50.67,50.67,0,0,0,18.89,3.38q11.85,0,20.53-4.2a45,45,0,0,0,14-10L797.71,100a3.74,3.74,0,0,1,6.3,1.18l0,.07a39.59,39.59,0,0,0,9.31,14.51,42.77,42.77,0,0,0,14.87,9.4,54.56,54.56,0,0,0,19.72,3.38A62.25,62.25,0,0,0,862.53,127a69.88,69.88,0,0,0,11.05-3.56,40.61,40.61,0,0,0,7.57-4.11l1.37-1a3.78,3.78,0,0,0,1-5.16l-6.69-10.31a3.79,3.79,0,0,0-5.12-1.19q-2.54,1.47-6.24,3.22-6.39,3-16.61,3c-6.94,0-12.82-2.12-16.77-5.59s-7.19-8.29-8-11.75C823.13,86.48,823.85,78,824,73.78Z"/><path class="cls-1" d="M898.39,124.21a3.9,3.9,0,0,1-1.08,2.7,3.91,3.91,0,0,1-5.62,0,3.94,3.94,0,0,1,0-5.4,3.91,3.91,0,0,1,5.62,0A3.9,3.9,0,0,1,898.39,124.21Z"/><path class="cls-1" d="M930.29,101.67a9.38,9.38,0,0,0-3.57-3.2,10.53,10.53,0,0,0-5.07-1.26,13.2,13.2,0,0,0-5.33,1,12.13,12.13,0,0,0-4.07,2.88,12.74,12.74,0,0,0-2.59,4.32,15.68,15.68,0,0,0-.9,5.37,15.37,15.37,0,0,0,.9,5.33,12.91,12.91,0,0,0,2.56,4.28,11.68,11.68,0,0,0,4,2.88,13,13,0,0,0,5.33,1,10.71,10.71,0,0,0,9.14-4.39l3.67,2.74A16.16,16.16,0,0,1,929.1,127a16.6,16.6,0,0,1-7.52,1.58,19.69,19.69,0,0,1-7.42-1.33,16.48,16.48,0,0,1-5.65-3.71,16.72,16.72,0,0,1-3.64-5.62,19.94,19.94,0,0,1,0-14.11,16.68,16.68,0,0,1,3.64-5.61,16.34,16.34,0,0,1,5.65-3.71,19.69,19.69,0,0,1,7.42-1.33,17.63,17.63,0,0,1,6.87,1.47,13.5,13.5,0,0,1,5.65,4.36Z"/><path class="cls-1" d="M973,110.82a18.32,18.32,0,0,1-1.33,7.05,16.65,16.65,0,0,1-9.39,9.33,19.33,19.33,0,0,1-7.28,1.33,19.09,19.09,0,0,1-7.2-1.33,16.65,16.65,0,0,1-9.39-9.33,19.38,19.38,0,0,1,0-14.11,16.68,16.68,0,0,1,9.39-9.32,19.09,19.09,0,0,1,7.2-1.33,19.33,19.33,0,0,1,7.28,1.33,16.68,16.68,0,0,1,9.39,9.32A18.34,18.34,0,0,1,973,110.82Zm-5.18,0a15.39,15.39,0,0,0-.9-5.29,12.8,12.8,0,0,0-2.56-4.32,12,12,0,0,0-4-2.92A12.72,12.72,0,0,0,955,97.21a12.47,12.47,0,0,0-5.29,1.08,12.2,12.2,0,0,0-4,2.92,12.94,12.94,0,0,0-2.55,4.32,16,16,0,0,0,0,10.58,12.94,12.94,0,0,0,2.55,4.32,12,12,0,0,0,4,2.88,12.78,12.78,0,0,0,5.29,1,13,13,0,0,0,5.33-1,11.78,11.78,0,0,0,4-2.88,12.8,12.8,0,0,0,2.56-4.32A15.43,15.43,0,0,0,967.8,110.82Z"/><path class="cls-1" d="M987,94.94a12.49,12.49,0,0,1,6.66-1.83,14.92,14.92,0,0,1,2.84.28,9.4,9.4,0,0,1,2.88,1.12,10.22,10.22,0,0,1,2.59,2.2,12.14,12.14,0,0,1,2,3.52,12.82,12.82,0,0,1,4.72-5.29,13.32,13.32,0,0,1,7.09-1.83q6.4,0,9.61,3.81t3.21,10.08v20.67h-4.9V109a16.3,16.3,0,0,0-2-8.57q-2-3.24-6.73-3.24a8.72,8.72,0,0,0-4.5,1.08,8.63,8.63,0,0,0-2.95,2.84,12.37,12.37,0,0,0-1.62,4,20.61,20.61,0,0,0-.51,4.61v17.93h-4.89V108a25.42,25.42,0,0,0-.36-4.46,9.23,9.23,0,0,0-1.26-3.42A5.83,5.83,0,0,0,996.45,98a9.26,9.26,0,0,0-4-.76,8.45,8.45,0,0,0-3.49.79,9.17,9.17,0,0,0-3.17,2.41,12.6,12.6,0,0,0-2.27,4.11,18,18,0,0,0-.86,5.87v17.28h-4.9V101.39c0-.92,0-2.09-.07-3.53s-.12-2.74-.21-3.89h4.68c.09.91.16,1.92.21,3s.07,2,.07,2.74h.15A11.44,11.44,0,0,1,987,94.94Z"/><ellipse class="cls-2" cx="15.59" cy="53.32" rx="15.59" ry="15.35"/><ellipse class="cls-3" cx="79.58" cy="53.32" rx="15.59" ry="15.35"/><path class="cls-2" d="M42.8,125.22c-.1-1.23-.16-2.47-.16-3.73a46.53,46.53,0,0,1,4.94-20.91c-.08-.16-.15-.33-.24-.49a48.24,48.24,0,0,0-43-26c-1.29,0-2.58,0-3.85.16-.11,1.33-.18,2.66-.18,4A47.32,47.32,0,0,0,42.8,125.22Z"/><path class="cls-3" d="M42.8,125.22a47.2,47.2,0,0,0,52.05-47c0-1.34-.07-2.67-.18-4-1.27-.11-2.55-.16-3.85-.16a48.25,48.25,0,0,0-43,26.05c-.09.16-.16.33-.24.49a46.53,46.53,0,0,0-4.94,20.91C42.64,122.75,42.7,124,42.8,125.22Z"/></svg>