<svg viewBox="1.97959 -4.77329 126.565 130.521" width="657.741089" height="678.299683" xmlns="http://www.w3.org/2000/svg" xmlns:xlink="http://www.w3.org/1999/xlink">

<path d="M 60.3317 6.79005 L 60.3317 6.79005 L 60.4162 6.70508 L 60.523 6.65048 L 60.6414 6.63162 L 60.7598 6.65017 L 60.8668 6.70447 L 60.9518 6.78897 L 61.0065 6.89572 L 61.0257 7.01412 L 61.007 7.13259 L 60.9526 7.23957 L 60.8717 7.256 L 60.7982 7.3296 L 60.7093 7.35882 L 60.6224 7.4034 L 60.516 7.46115 L 60.4033 7.55119 L 60.5026 7.50021 L 60.3912 7.61504 L 60.2659 7.75593 L 60.1184 7.92539 L 59.9557 8.12104 L 60.0597 8.01687 L 59.894 8.23768 L 59.7222 8.49395 L 59.5341 8.79622 L 59.3266 9.13928 L 59.0966 9.54283 L 58.8438 10.0174 L 58.5616 10.5619 L 58.2356 11.1724 L 57.8516 11.8631 L 57.4243 12.6222 L 56.9457 13.4836 L 56.42 14.444 L 55.8664 15.4688 L 55.3087 16.5179 L 54.7378 17.6017 L 54.1544 18.72 L 53.5477 19.8917 L 52.9319 21.0598 L 52.3147 22.1786 L 51.6861 23.2947 L 51.0427 24.4438 L 50.4323 25.5618 L 49.8357 26.6965 L 49.268 27.8224 L 49.3421 27.6768 L 48.8201 28.7483 L 48.7459 28.8939 L 48.2512 29.908 L 47.7693 30.8684 L 47.3124 31.7503 L 46.8579 32.602 L 46.423 33.4087 L 46.0258 34.1377 L 45.6614 34.8089 L 45.3204 35.4578 L 45.0251 36.0471 L 45.0992 35.9015 L 44.8405 36.4481 L 44.6175 36.9368 L 44.4191 37.3711 L 44.2434 37.7619 L 44.0936 38.102 L 43.9738 38.3736 L 43.877 38.5834 L 43.7971 38.7349 L 43.7371 38.8346 L 43.6921 38.891 L 43.6284 39.0162 L 43.5291 39.1156 L 43.5053 39.1046 L 43.3868 39.1654 L 43.2554 39.1867 L 43.124 39.1659 L 43.0054 39.1055 L 42.9111 39.0114 L 42.8505 38.8929 L 42.8295 38.7615 L 42.8601 38.6808 L 42.8794 38.5577 L 42.9464 38.3734 L 43.0818 38.0919 L 43.2819 37.7555 L 43.3136 37.6932 L 43.3629 37.6436 L 43.4252 37.6117 L 43.4942 37.6007 L 43.5634 37.6115 L 43.6258 37.6432 L 43.6754 37.6925 L 43.7073 37.7548 L 43.7185 37.8239 L 43.7076 37.893 L 43.661 38.279 L 43.6346 38.5957 L 43.6377 38.8027 L 43.6572 38.6795 L 43.6806 38.7601 L 43.6593 38.6287 L 43.5986 38.5103 L 43.5043 38.4165 L 43.3855 38.3562 L 43.254 38.3356 L 43.1226 38.3566 L 43.0042 38.4172 L 43.0008 38.3908 L 42.902 38.4902 L 42.8384 38.6152 L 42.8432 38.5458 L 42.8663 38.4342 L 42.9152 38.2726 L 42.9907 38.056 L 43.101 37.7813 L 43.2489 37.4407 L 43.4252 37.05 L 43.6243 36.6159 L 43.8475 36.1273 L 44.1062 35.5807 L 44.1801 35.4352 L 44.4753 34.8459 L 44.8164 34.197 L 45.1807 33.5258 L 45.5779 32.7968 L 46.0129 31.9902 L 46.4674 31.1384 L 46.9242 30.2565 L 47.4061 29.2961 L 47.9009 28.282 L 47.827 28.4275 L 48.3491 27.356 L 48.423 27.2105 L 48.9907 26.0846 L 49.5872 24.9499 L 50.1976 23.8319 L 50.8411 22.6828 L 51.4697 21.5667 L 52.0869 20.4479 L 52.7027 19.2798 L 53.3093 18.1081 L 53.8927 16.9898 L 54.4636 15.906 L 55.0213 14.8569 L 55.5749 13.8321 L 56.1006 12.8717 L 56.5793 12.0103 L 57.0066 11.2513 L 57.3905 10.5606 L 57.7164 9.94993 L 57.998 9.40507 L 58.2503 8.93008 L 58.4819 8.52767 L 58.6976 8.19052 L 58.9036 7.90127 L 59.1017 7.66403 L 59.2986 7.46576 L 59.4022 7.36159 L 59.5902 7.20071 L 59.7671 7.07159 L 59.9283 6.98 L 60.0822 6.92347 L 60.1816 6.87264 L 60.3149 6.8453 L 60.4285 6.80998 L 60.3416 6.85443 L 60.4071 6.79298 L 60.3339 6.86658 L 60.3317 6.79005 Z" style='fill:rgba(228,197,33,1); stroke:none' />

<path d="M 61.7734 6.09799 L 61.7734 6.09799 L 61.8912 6.11645 L 61.9976 6.17045 L 62.0822 6.25451 L 62.1366 6.36069 L 62.1557 6.47847 L 62.1371 6.59632 L 62.0829 6.70273 L 61.9986 6.78725 L 61.8924 6.84171 L 61.7746 6.86078 L 61.7325 6.8128 L 61.6957 6.79303 L 61.6654 6.80297 L 61.6444 6.83285 L 61.6383 6.86815 L 61.7595 6.84854 L 61.8687 6.79252 L 61.9555 6.70558 L 62.0112 6.59613 L 62.0303 6.47491 L 62.0107 6.35377 L 61.9547 6.24456 L 61.8677 6.15809 L 61.7583 6.10254 L 61.7882 6.08238 L 61.9062 6.1423 L 61.9743 6.15287 L 62.0654 6.19159 L 62.1721 6.25264 L 62.2888 6.33538 L 62.4008 6.44678 L 62.5277 6.56133 L 62.6655 6.70994 L 62.8184 6.88972 L 62.9943 7.11034 L 63.1934 7.3736 L 63.4212 7.68304 L 63.6829 8.04059 L 63.9831 8.45721 L 64.3086 8.92038 L 64.6736 9.43974 L 65.0815 10.0015 L 65.5336 10.5957 L 66.0322 11.226 L 66.5659 11.8769 L 67.1206 12.5352 L 67.6946 13.2161 L 68.2689 13.9175 L 68.8344 14.643 L 69.4085 15.4171 L 70.0042 16.2508 L 70.6006 17.1264 L 71.2121 18.0829 L 71.797 19.0673 L 72.3403 20.0576 L 72.4148 20.2029 L 72.9106 21.1846 L 73.3784 22.1876 L 73.8078 23.1678 L 74.2293 24.1544 L 74.6525 25.1243 L 75.072 26.037 L 75.4843 26.8938 L 75.8919 27.6994 L 75.8174 27.5541 L 76.2117 28.291 L 76.5928 28.9679 L 76.9685 29.6055 L 77.3338 30.2015 L 77.6895 30.7698 L 78.0381 31.3261 L 78.3627 31.8626 L 78.6721 32.4106 L 78.7466 32.5559 L 79.036 33.1088 L 79.2905 33.6495 L 79.5168 34.1798 L 79.7226 34.7051 L 79.9068 35.2129 L 80.0763 35.7227 L 80.2359 36.2226 L 80.3901 36.6888 L 80.543 37.1149 L 80.7 37.5 L 80.8593 37.8347 L 80.7846 37.6893 L 80.9515 37.992 L 81.1226 38.2589 L 81.2908 38.4846 L 81.4523 38.6721 L 81.3403 38.5607 L 81.4953 38.7181 L 81.6282 38.843 L 81.7399 38.9414 L 81.8262 39.0129 L 81.7074 38.9526 L 81.7652 39.009 L 81.8764 39.0655 L 81.8867 39.1146 L 81.9667 39.1941 L 82.0182 39.2945 L 81.9721 39.3307 L 81.9873 39.4244 L 81.9079 39.4476 L 81.8969 39.5172 L 81.865 39.58 L 81.8152 39.6299 L 81.7525 39.662 L 81.683 39.6733 L 81.6134 39.6623 L 81.5507 39.6303 L 81.5008 39.5805 L 81.4688 39.5179 L 81.4577 39.4483 L 81.3804 39.4253 L 81.3954 39.519 L 81.3326 39.5184 L 81.384 39.6188 L 81.4639 39.6986 L 81.4092 39.7106 L 81.5203 39.7672 L 81.4456 39.7629 L 81.327 39.7025 L 81.2136 39.6683 L 81.0772 39.604 L 80.9218 39.5102 L 80.7478 39.379 L 80.6358 39.2672 L 80.4565 39.0928 L 80.2799 38.8731 L 80.107 38.6075 L 79.9406 38.3045 L 79.8662 38.159 L 79.7077 37.8241 L 79.551 37.4389 L 79.3981 37.0128 L 79.2439 36.5467 L 79.0842 36.0467 L 78.9147 35.5369 L 78.7306 35.0292 L 78.5248 34.5038 L 78.2985 33.9736 L 78.0439 33.4328 L 77.7546 32.8799 L 77.8289 33.0252 L 77.5195 32.4772 L 77.1949 31.9407 L 76.8463 31.3844 L 76.4906 30.8161 L 76.1253 30.2201 L 75.7496 29.5825 L 75.3685 28.9056 L 74.9742 28.1687 L 74.8999 28.0235 L 74.4923 27.2178 L 74.08 26.361 L 73.6605 25.4483 L 73.2373 24.4784 L 72.8157 23.4918 L 72.3864 22.5116 L 71.9185 21.5086 L 71.4228 20.5269 L 71.4971 20.6722 L 70.9538 19.6819 L 70.3689 18.6975 L 69.7574 17.741 L 69.1609 16.8654 L 68.5653 16.0317 L 67.9912 15.2576 L 67.4257 14.5321 L 66.8514 13.8307 L 66.2774 13.1498 L 65.7227 12.4915 L 65.1889 11.8406 L 64.6904 11.2103 L 64.2383 10.6161 L 63.8304 10.0543 L 63.4655 9.53497 L 63.1399 9.07179 L 62.8397 8.65515 L 62.578 8.29762 L 62.35 7.98836 L 62.1503 7.72554 L 61.9739 7.50527 L 61.8228 7.32416 L 61.6933 7.16948 L 61.5842 7.04198 L 61.6962 7.15379 L 61.5984 7.04509 L 61.5141 6.95302 L 61.4484 6.87918 L 61.4101 6.82753 L 61.528 6.88762 L 61.5171 6.84901 L 61.4078 6.7933 L 61.3209 6.70652 L 61.265 6.59732 L 61.2457 6.47617 L 61.2647 6.35498 L 61.3202 6.24565 L 61.4067 6.15872 L 61.5159 6.10286 L 61.6371 6.08356 L 61.6433 6.11981 L 61.6643 6.15355 L 61.6947 6.16547 L 61.7315 6.14611 L 61.7734 6.09799 Z" style='fill:rgba(228,197,33,1); stroke:none' />

<path d="M 44.0827 39.3124 L 44.0827 39.3124 L 44.0641 39.4302 L 44.01 39.5365 L 43.9257 39.6209 L 43.8197 39.6754 L 43.702 39.6944 L 43.5843 39.6758 L 43.4781 39.6217 L 43.3936 39.5374 L 43.3394 39.4314 L 43.3206 39.3137 L 43.369 39.2919 L 43.3883 39.268 L 43.4037 39.365 L 43.3891 39.3445 L 43.3468 39.3295 L 43.3976 39.4287 L 43.3492 39.4258 L 43.4361 39.5126 L 43.3935 39.5143 L 43.3539 39.516 L 43.3179 39.5211 L 43.449 39.5878 L 43.4253 39.5981 L 43.2889 39.5286 L 43.2662 39.5337 L 43.2519 39.5356 L 43.1375 39.4214 L 43.0639 39.2776 L 43.0385 39.1181 L 43.0635 38.9586 L 43.1366 38.8147 L 43.2504 38.7002 L 43.3942 38.6267 L 43.4097 38.6152 L 43.5707 38.5896 L 43.6384 38.5851 L 43.76 38.5847 L 43.9156 38.5853 L 44.1054 38.5857 L 44.338 38.5858 L 44.6054 38.5857 L 44.8933 38.5858 L 45.2155 38.5863 L 45.5812 38.5874 L 45.9931 38.5879 L 46.4533 38.5836 L 46.9689 38.5677 L 47.5255 38.5359 L 48.1296 38.4885 L 48.7655 38.4297 L 49.4228 38.3644 L 50.1322 38.2918 L 50.9205 38.2098 L 51.7664 38.1274 L 52.6696 38.0519 L 53.5901 37.9886 L 54.498 37.9393 L 55.4278 37.9005 L 56.3977 37.8681 L 57.3725 37.8446 L 58.3848 37.8241 L 59.4132 37.8011 L 60.4461 37.7775 L 61.5129 37.7539 L 62.6126 37.7342 L 63.6822 37.7178 L 64.7623 37.7027 L 65.8422 37.6899 L 66.8925 37.6813 L 67.9227 37.6747 L 68.9267 37.6717 L 69.8635 37.6712 L 70.7825 37.6715 L 71.6937 37.6717 L 72.5718 37.6718 L 73.4096 37.6718 L 74.2107 37.6718 L 74.9786 37.6717 L 75.7497 37.6717 L 76.5045 37.6719 L 77.2117 37.6724 L 77.8626 37.6732 L 78.4514 37.6728 L 78.965 37.6672 L 79.4331 37.6516 L 79.8592 37.6293 L 80.2447 37.6083 L 80.5997 37.5909 L 80.926 37.5771 L 81.1994 37.5713 L 81.4227 37.5779 L 81.5967 37.5935 L 81.7239 37.6132 L 81.8107 37.6345 L 81.8617 37.6574 L 81.87 37.6845 L 81.7469 37.7041 L 81.636 37.7609 L 81.5482 37.8492 L 81.4918 37.9602 L 81.4725 38.0833 L 81.4921 38.2063 L 81.5489 38.3172 L 81.6371 38.4053 L 81.7482 38.4619 L 81.8712 38.4814 L 81.8137 38.4442 L 81.6704 38.3911 L 81.4627 38.3221 L 81.3931 38.3111 L 81.3303 38.2791 L 81.2804 38.2292 L 81.2483 38.1665 L 81.2372 38.0969 L 81.2481 38.0273 L 81.28 37.9645 L 81.3297 37.9146 L 81.3924 37.8825 L 81.462 37.8714 L 81.6695 37.7846 L 81.8126 37.7232 L 81.87 37.6845 L 81.9931 37.7038 L 82.1042 37.7602 L 82.1925 37.848 L 82.2494 37.959 L 82.2693 38.082 L 82.2499 38.2051 L 82.1933 38.3162 L 82.1052 38.4045 L 81.9943 38.4614 L 81.8712 38.4814 L 81.8631 38.5092 L 81.8121 38.5325 L 81.7254 38.5532 L 81.5982 38.5719 L 81.4244 38.5886 L 81.2011 38.6041 L 80.9277 38.6202 L 80.6014 38.6363 L 80.2464 38.6532 L 79.8608 38.6734 L 79.4347 38.6954 L 78.9666 38.7109 L 78.4531 38.7166 L 77.8643 38.717 L 77.2134 38.7162 L 76.5062 38.7157 L 75.7514 38.7155 L 74.9803 38.7155 L 74.2124 38.7156 L 73.4113 38.7156 L 72.5734 38.7156 L 71.6954 38.7155 L 70.7842 38.7153 L 69.8652 38.715 L 68.9283 38.7155 L 67.9244 38.7186 L 66.8941 38.7252 L 65.8439 38.7338 L 64.7639 38.7465 L 63.6839 38.7616 L 62.6143 38.778 L 61.5145 38.7978 L 60.4477 38.8213 L 59.4149 38.8449 L 58.3864 38.8679 L 57.3741 38.8884 L 56.3993 38.9119 L 55.4294 38.9443 L 54.4997 38.9831 L 53.5918 39.0324 L 52.6712 39.0957 L 51.7681 39.1712 L 50.9221 39.2536 L 50.1338 39.3357 L 49.4245 39.4082 L 48.7672 39.4735 L 48.1313 39.5323 L 47.5272 39.5797 L 46.9706 39.6115 L 46.455 39.6275 L 45.9948 39.6317 L 45.5829 39.6312 L 45.2172 39.6301 L 44.895 39.6296 L 44.6071 39.6295 L 44.3397 39.6295 L 44.107 39.6295 L 43.9173 39.6294 L 43.7617 39.6295 L 43.6401 39.6305 L 43.5724 39.6327 L 43.7335 39.6066 L 43.7148 39.6083 L 43.8586 39.5345 L 43.9728 39.4201 L 44.0461 39.276 L 44.0713 39.1165 L 44.0455 38.957 L 43.9718 38.8132 L 43.8573 38.6994 L 43.8588 38.7153 L 43.8627 38.7361 L 43.7261 38.6668 L 43.7381 38.693 L 43.8693 38.7596 L 43.8798 38.7897 L 43.8895 38.8292 L 43.8959 38.8776 L 43.9828 38.964 L 43.9735 39.009 L 44.0244 39.1082 L 44.0066 39.1428 L 44.0007 39.17 L 44.0164 39.267 L 44.0361 39.2908 L 44.0827 39.3124 Z" style='fill:rgba(228,197,33,1); stroke:none' />

<path d="M 42.0624 43.5871 L 42.0624 43.5871 L 42.1804 43.6055 L 42.2869 43.6596 L 42.3715 43.7438 L 42.4261 43.8501 L 42.4452 43.968 L 42.4265 44.086 L 42.3723 44.1926 L 42.2878 44.2772 L 42.1815 44.3317 L 42.0636 44.3508 L 42.0278 44.302 L 41.99 44.2823 L 41.9549 44.2935 L 41.9397 44.3256 L 41.8295 44.3082 L 41.7301 44.2575 L 41.6511 44.1786 L 41.6003 44.0794 L 41.5828 43.9692 L 41.6 43.8591 L 41.6505 43.7597 L 41.7291 43.6806 L 41.8284 43.6299 L 41.9385 43.6123 L 41.9581 43.5765 L 42.0189 43.5457 L 42.1125 43.5204 L 42.224 43.4987 L 42.3529 43.4796 L 42.4983 43.4635 L 42.6654 43.4525 L 42.8489 43.4473 L 43.051 43.4462 L 43.2642 43.4465 L 43.4984 43.4469 L 43.7459 43.4471 L 44.0108 43.4471 L 44.3052 43.447 L 44.6429 43.447 L 45.0164 43.4469 L 45.4385 43.447 L 45.92 43.4475 L 46.4696 43.4489 L 47.1081 43.4501 L 47.8517 43.4456 L 48.6643 43.4255 L 49.5507 43.3835 L 50.4946 43.3258 L 51.4867 43.262 L 52.5583 43.1937 L 53.6901 43.1183 L 54.849 43.0396 L 56.0516 42.9616 L 57.2781 42.8863 L 58.484 42.8136 L 59.6783 42.7402 L 60.9045 42.6704 L 62.1535 42.6089 L 63.4319 42.5522 L 64.6937 42.5026 L 65.9157 42.4632 L 67.1426 42.4355 L 68.3668 42.4171 L 69.4913 42.4101 L 70.566 42.4095 L 71.6209 42.4103 L 72.6235 42.4105 L 73.5701 42.4102 L 74.4675 42.4109 L 75.3103 42.4155 L 76.117 42.4256 L 76.9022 42.4361 L 77.652 42.4411 L 78.3676 42.4419 L 79.0572 42.4415 L 79.7156 42.4412 L 80.3521 42.4412 L 80.9525 42.4414 L 81.5164 42.441 L 82.0374 42.4389 L 82.5185 42.4362 L 82.9225 42.4395 L 83.258 42.4453 L 83.5293 42.4552 L 83.7318 42.474 L 83.8538 42.5016 L 83.8754 42.5378 L 83.764 42.5556 L 83.6635 42.6069 L 83.584 42.6869 L 83.5329 42.7875 L 83.5154 42.899 L 83.5331 43.0105 L 83.5845 43.1109 L 83.6645 43.1907 L 83.7651 43.242 L 83.8766 43.2596 L 83.7694 43.1912 L 83.5612 43.0876 L 83.4917 43.0766 L 83.4291 43.0447 L 83.3793 42.995 L 83.3473 42.9324 L 83.3362 42.863 L 83.3471 42.7935 L 83.3789 42.7309 L 83.4285 42.6811 L 83.491 42.6491 L 83.5604 42.638 L 83.7684 42.5839 L 83.8754 42.5378 L 83.9869 42.5553 L 84.0876 42.6064 L 84.1676 42.6859 L 84.2192 42.7864 L 84.2372 42.8978 L 84.2196 43.0094 L 84.1683 43.11 L 84.0885 43.19 L 83.988 43.2416 L 83.8766 43.2596 L 83.8551 43.2985 L 83.7332 43.3256 L 83.5307 43.3529 L 83.2595 43.3852 L 82.9241 43.4178 L 82.5201 43.447 L 82.039 43.4719 L 81.518 43.4842 L 80.9541 43.4868 L 80.3537 43.486 L 79.7173 43.4852 L 79.0589 43.4853 L 78.3693 43.4857 L 77.6537 43.4849 L 76.9039 43.4799 L 76.1186 43.4694 L 75.312 43.4593 L 74.4692 43.4547 L 73.5718 43.4541 L 72.6252 43.4543 L 71.6226 43.4541 L 70.5677 43.4533 L 69.493 43.4539 L 68.3685 43.461 L 67.1443 43.4793 L 65.9174 43.507 L 64.6954 43.5465 L 63.4335 43.596 L 62.1551 43.6527 L 60.9061 43.7142 L 59.68 43.784 L 58.4856 43.8574 L 57.2797 43.9301 L 56.0532 44.0054 L 54.8507 44.0835 L 53.6918 44.1621 L 52.56 44.2375 L 51.4883 44.3058 L 50.4963 44.3697 L 49.5524 44.4273 L 48.666 44.4694 L 47.8534 44.4894 L 47.1098 44.4939 L 46.4713 44.4927 L 45.9217 44.4913 L 45.4402 44.4908 L 45.0181 44.4907 L 44.6446 44.4908 L 44.3068 44.4908 L 44.0124 44.4908 L 43.7476 44.4908 L 43.5001 44.491 L 43.2659 44.4913 L 43.0526 44.4916 L 42.8505 44.4905 L 42.6671 44.4854 L 42.4999 44.4744 L 42.3544 44.4583 L 42.2256 44.4392 L 42.114 44.4175 L 42.0202 44.3922 L 41.9594 44.3614 L 41.9397 44.3256 L 42.0498 44.3077 L 42.1491 44.2568 L 42.228 44.1778 L 42.2786 44.0783 L 42.296 43.9681 L 42.2782 43.858 L 42.2272 43.7587 L 42.1482 43.6801 L 42.0487 43.6296 L 41.9385 43.6123 L 41.9538 43.6444 L 41.989 43.6555 L 42.0268 43.6359 L 42.0624 43.5871 Z" style='fill:rgba(0,0,0,1); stroke:none' />

<path d="M 42.6278 44.2255 L 42.6278 44.2255 L 42.6094 44.3418 L 42.556 44.4468 L 42.4727 44.5302 L 42.3679 44.5839 L 42.2517 44.6027 L 42.1354 44.5844 L 42.0305 44.5309 L 41.9471 44.4477 L 41.8935 44.3429 L 41.875 44.2267 L 41.9157 44.1966 L 41.9335 44.1625 L 41.9245 44.1281 L 41.8955 44.0961 L 41.8609 44.0686 L 41.8294 44.0466 L 41.8032 44.0284 L 41.7815 44.0136 L 41.7631 44.0058 L 41.7868 43.8545 L 41.8562 43.7181 L 41.9641 43.6095 L 42.1004 43.5398 L 42.2516 43.5157 L 42.4029 43.5394 L 42.5395 43.6088 L 42.6481 43.7167 L 42.718 43.853 L 42.7425 44.0042 L 42.758 44.0107 L 42.7653 44.0379 L 42.7402 44.1974 L 42.7348 44.2553 L 42.7159 44.3445 L 42.6807 44.465 L 42.6267 44.6094 L 42.5542 44.7785 L 42.4607 44.9824 L 42.3467 45.2273 L 42.2143 45.5075 L 42.0612 45.8257 L 41.987 45.9713 L 41.8179 46.3166 L 41.6343 46.6879 L 41.4385 47.0821 L 41.2357 47.4954 L 41.3098 47.3498 L 41.115 47.7613 L 40.9242 48.1826 L 40.7336 48.6149 L 40.536 49.0639 L 40.321 49.5486 L 40.0838 50.0775 L 39.8287 50.6347 L 39.552 51.2196 L 39.2596 51.8226 L 39.1855 51.9682 L 38.8819 52.583 L 38.5703 53.2114 L 38.2489 53.8611 L 37.9211 54.5196 L 37.5695 55.2049 L 37.1961 55.9041 L 36.8005 56.6197 L 36.4033 57.343 L 36.0126 58.0782 L 35.6356 58.8214 L 35.7098 58.6758 L 35.3465 59.4276 L 34.9943 60.1794 L 34.6442 60.9307 L 34.2928 61.6779 L 33.9363 62.4321 L 33.5703 63.2003 L 33.1887 63.9945 L 32.7958 64.8059 L 32.7216 64.9515 L 32.3218 65.7669 L 31.9079 66.5913 L 31.4805 67.4314 L 31.0551 68.2719 L 30.6273 69.1393 L 30.7014 68.9936 L 30.2799 69.8781 L 29.8705 70.7541 L 29.4611 71.6224 L 29.0466 72.4852 L 28.9725 72.6308 L 28.5615 73.4696 L 28.1427 74.3142 L 27.7216 75.1587 L 27.3101 75.9816 L 26.9076 76.7841 L 26.5146 77.5738 L 26.5887 77.4282 L 26.2141 78.1993 L 25.8642 78.9526 L 25.5462 79.6759 L 25.2598 80.3722 L 24.9974 81.0563 L 24.7476 81.7406 L 24.5017 82.422 L 24.2464 83.1371 L 23.9792 83.8941 L 23.702 84.6833 L 23.4166 85.4912 L 23.1211 86.3162 L 22.8199 87.1537 L 22.5126 88.0123 L 22.2033 88.8821 L 21.8954 89.7489 L 21.5864 90.6165 L 21.2772 91.477 L 20.9746 92.3044 L 20.6703 93.1287 L 20.3706 93.9593 L 20.0804 94.7955 L 19.7878 95.6471 L 19.4851 96.5143 L 19.1813 97.3729 L 18.8691 98.2539 L 18.5519 99.1634 L 18.2354 100.089 L 17.9145 101.031 L 17.5892 101.973 L 17.2744 102.871 L 16.9688 103.739 L 16.681 104.56 L 16.425 105.311 L 16.1974 106.004 L 15.9823 106.668 L 15.7776 107.291 L 15.5767 107.886 L 15.3837 108.45 L 15.2032 108.985 L 15.0371 109.492 L 14.8828 109.994 L 14.7448 110.485 L 14.6152 110.974 L 14.4906 111.445 L 14.3773 111.88 L 14.2775 112.273 L 14.1888 112.624 L 14.1086 112.924 L 14.032 113.178 L 13.9597 113.378 L 13.8913 113.524 L 13.828 113.622 L 13.7642 113.748 L 13.7066 113.795 L 13.6122 113.889 L 13.4935 113.95 L 13.3618 113.971 L 13.3283 113.946 L 13.2054 113.927 L 13.0946 113.87 L 13.0065 113.783 L 12.9498 113.672 L 12.9579 113.578 L 12.9403 113.468 L 12.9679 113.271 L 13.0083 112.992 L 13.0193 112.921 L 13.0517 112.858 L 13.102 112.807 L 13.1656 112.775 L 13.2362 112.763 L 13.3068 112.774 L 13.3705 112.807 L 13.4212 112.857 L 13.4538 112.921 L 13.4652 112.991 L 13.571 113.27 L 13.6567 113.466 L 13.6387 113.356 L 13.7058 113.425 L 13.649 113.314 L 13.5609 113.226 L 13.4499 113.17 L 13.327 113.151 L 13.3605 113.118 L 13.2288 113.139 L 13.1101 113.2 L 13.0161 113.295 L 13.0359 113.22 L 12.9722 113.346 L 12.9958 113.235 L 13.0286 113.077 L 13.071 112.867 L 13.1269 112.607 L 13.1968 112.303 L 13.2826 111.952 L 13.3828 111.558 L 13.4969 111.124 L 13.622 110.653 L 13.7518 110.165 L 13.8898 109.673 L 14.044 109.172 L 14.2102 108.664 L 14.3907 108.129 L 14.5836 107.565 L 14.7845 106.97 L 14.9892 106.347 L 15.2043 105.683 L 15.4319 104.99 L 15.6879 104.239 L 15.9757 103.418 L 16.2813 102.551 L 16.5961 101.652 L 16.9214 100.71 L 17.2423 99.7683 L 17.5588 98.8425 L 17.876 97.9331 L 18.1882 97.0521 L 18.492 96.1935 L 18.7947 95.3262 L 19.0873 94.4747 L 19.3776 93.6385 L 19.6772 92.8079 L 19.9815 91.9836 L 20.2842 91.1562 L 20.5933 90.2956 L 20.9023 89.4281 L 21.2103 88.5613 L 21.5195 87.6914 L 21.8268 86.8328 L 22.128 85.9953 L 22.4235 85.1703 L 22.709 84.3625 L 22.9861 83.5732 L 23.2533 82.8163 L 23.5086 82.1012 L 23.7546 81.4197 L 24.0043 80.7355 L 24.2668 80.0514 L 24.5531 79.355 L 24.8711 78.6318 L 25.221 77.8785 L 25.5956 77.1074 L 25.6695 76.9619 L 26.0625 76.1722 L 26.465 75.3698 L 26.8765 74.5468 L 27.2976 73.7024 L 27.7164 72.8577 L 28.1274 72.019 L 28.0535 72.1644 L 28.468 71.3016 L 28.8774 70.4332 L 29.2868 69.5572 L 29.7083 68.6728 L 29.7822 68.5274 L 30.2101 67.66 L 30.6354 66.8195 L 31.0628 65.9794 L 31.4767 65.155 L 31.8766 64.3396 L 31.8027 64.4851 L 32.1956 63.6737 L 32.5772 62.8795 L 32.9432 62.1113 L 33.2997 61.3571 L 33.6512 60.6098 L 34.0012 59.8586 L 34.3534 59.1067 L 34.7167 58.3549 L 34.7906 58.2095 L 35.1675 57.4663 L 35.5583 56.7311 L 35.9555 56.0078 L 36.351 55.2922 L 36.7244 54.593 L 37.076 53.9078 L 37.4039 53.2492 L 37.7252 52.5995 L 38.0369 51.9711 L 38.3404 51.3563 L 38.2665 51.5018 L 38.5589 50.8987 L 38.8356 50.3138 L 39.0907 49.7567 L 39.328 49.2278 L 39.5429 48.7431 L 39.7405 48.294 L 39.9311 47.8617 L 40.1219 47.4405 L 40.3167 47.0289 L 40.3906 46.8835 L 40.5934 46.4702 L 40.7892 46.076 L 40.9728 45.7047 L 41.142 45.3594 L 41.0681 45.5049 L 41.2212 45.1867 L 41.3536 44.9065 L 41.4677 44.6616 L 41.5611 44.4576 L 41.633 44.2884 L 41.6861 44.1437 L 41.7211 44.0231 L 41.7428 43.9348 L 41.7583 43.8802 L 41.7333 44.0396 L 41.7475 44.0124 L 41.7631 44.0058 L 41.7872 44.157 L 41.857 44.2933 L 41.9655 44.4016 L 42.1019 44.4712 L 42.2532 44.4951 L 42.4044 44.4706 L 42.5407 44.4006 L 42.649 44.2921 L 42.7186 44.1555 L 42.7425 44.0042 L 42.7226 44.012 L 42.6999 44.027 L 42.6733 44.0452 L 42.6418 44.0673 L 42.6072 44.095 L 42.5783 44.1271 L 42.5693 44.1615 L 42.5871 44.1955 L 42.6278 44.2255 Z" style='fill:rgba(0,0,0,1); stroke:none' />

<path d="M 85.2215 42.9581 L 85.2215 42.9581 L 85.3255 43.0108 L 85.408 43.0929 L 85.4612 43.1967 L 85.4799 43.3117 L 85.4617 43.4268 L 85.4088 43.5307 L 85.3264 43.6133 L 85.2227 43.6665 L 85.1076 43.6851 L 84.9926 43.6669 L 84.9452 43.6135 L 84.8887 43.5739 L 84.7992 43.5283 L 84.7307 43.5023 L 84.6521 43.4838 L 84.5688 43.4618 L 84.4859 43.4294 L 84.3927 43.3363 L 84.3092 43.2885 L 84.231 43.2354 L 84.1589 43.1808 L 84.0956 43.1282 L 84.0418 43.0764 L 83.9956 43.0254 L 83.9527 42.9777 L 84.0686 43.0934 L 84.028 43.0559 L 83.9903 43.032 L 84.1359 43.1062 L 84.0988 43.0959 L 84.2601 43.1214 L 84.2228 43.1195 L 84.1877 43.1206 L 84.1559 43.122 L 84.1278 43.1229 L 84.1032 43.1232 L 84.0808 43.1231 L 84.0612 43.1223 L 84.0439 43.1205 L 83.8827 43.095 L 83.8666 43.0926 L 84.0278 43.118 L 84.0131 43.1174 L 84.1743 43.0913 L 84.3196 43.0168 L 84.3079 43.0245 L 84.4233 42.9089 L 84.4974 42.7633 L 84.4905 42.7895 L 84.516 42.6282 L 84.5145 42.6805 L 84.5214 42.7575 L 84.4953 42.5963 L 84.5169 42.6929 L 84.5578 42.8046 L 84.618 42.9339 L 84.6956 43.083 L 84.6211 42.9377 L 84.7159 43.112 L 84.83 43.3169 L 84.9678 43.5571 L 85.1345 43.8377 L 85.3339 44.1677 L 85.5607 44.5494 L 85.815 44.9876 L 86.0957 45.4751 L 86.3958 45.9989 L 86.7072 46.5463 L 87.0261 47.1126 L 87.3459 47.6846 L 87.6712 48.2739 L 87.996 48.8777 L 88.0705 49.0229 L 88.3859 49.6355 L 88.6953 50.2649 L 89.0043 50.9143 L 89.3114 51.5746 L 89.6311 52.2665 L 89.9775 52.9953 L 90.3567 53.7556 L 90.767 54.5442 L 90.6925 54.3989 L 91.1292 55.2148 L 91.5779 56.0415 L 92.0407 56.8942 L 92.5083 57.7671 L 92.5828 57.9124 L 93.043 58.7984 L 93.495 59.7074 L 93.9365 60.6391 L 94.3569 61.5647 L 94.7702 62.4904 L 95.1847 63.4047 L 95.602 64.2919 L 96.0241 65.1527 L 96.4459 65.9801 L 96.8497 66.7482 L 96.7751 66.6029 L 97.1655 67.3235 L 97.5439 68.009 L 97.9172 68.6822 L 98.2922 69.3681 L 98.3667 69.5134 L 98.7393 70.2218 L 99.0928 70.9365 L 99.4267 71.6603 L 99.7563 72.4012 L 100.091 73.152 L 100.434 73.9075 L 100.785 74.674 L 101.139 75.4492 L 101.49 76.2302 L 101.83 76.9961 L 102.152 77.7366 L 102.453 78.4464 L 102.737 79.1399 L 103.002 79.8122 L 103.25 80.4811 L 103.487 81.1476 L 103.714 81.8077 L 103.94 82.4695 L 104.166 83.1345 L 104.386 83.7898 L 104.61 84.4515 L 104.844 85.1225 L 105.094 85.7974 L 105.36 86.4778 L 105.636 87.1598 L 105.915 87.8204 L 106.198 88.4662 L 106.479 89.0923 L 106.75 89.6961 L 107.015 90.2907 L 107.274 90.8805 L 107.523 91.4531 L 107.766 92.014 L 108.005 92.5568 L 108.241 93.0777 L 108.473 93.5773 L 108.709 94.072 L 108.951 94.5683 L 109.201 95.0808 L 109.448 95.6011 L 109.691 96.1223 L 109.933 96.6335 L 110.175 97.1298 L 110.417 97.6092 L 110.657 98.0825 L 110.892 98.5436 L 111.123 98.9891 L 111.348 99.4282 L 111.568 99.8673 L 111.775 100.298 L 111.973 100.725 L 112.164 101.144 L 112.343 101.545 L 112.511 101.927 L 112.672 102.295 L 112.829 102.647 L 112.984 102.986 L 113.139 103.314 L 113.297 103.637 L 113.464 103.966 L 113.639 104.302 L 113.814 104.636 L 113.984 104.967 L 114.141 105.288 L 114.285 105.598 L 114.415 105.898 L 114.536 106.184 L 114.65 106.454 L 114.759 106.709 L 114.868 106.95 L 114.979 107.179 L 114.905 107.033 L 115.025 107.254 L 115.159 107.476 L 115.309 107.705 L 115.473 107.946 L 115.645 108.193 L 115.821 108.439 L 115.997 108.683 L 116.17 108.927 L 116.339 109.172 L 116.5 109.419 L 116.651 109.667 L 116.789 109.91 L 116.863 110.056 L 116.984 110.285 L 117.087 110.493 L 117.176 110.681 L 117.257 110.854 L 117.334 111.011 L 117.406 111.149 L 117.332 111.004 L 117.397 111.12 L 117.453 111.213 L 117.501 111.282 L 117.545 111.336 L 117.582 111.382 L 117.61 111.426 L 117.625 111.465 L 117.632 111.499 L 117.527 111.396 L 117.535 111.428 L 117.409 111.364 L 117.418 111.391 L 117.286 111.37 L 117.154 111.391 L 117.036 111.452 L 116.941 111.547 L 116.881 111.666 L 116.86 111.797 L 116.892 111.779 L 116.912 111.901 L 116.921 111.831 L 116.972 111.93 L 116.944 111.791 L 116.894 111.614 L 116.861 111.549 L 116.85 111.478 L 116.861 111.407 L 116.893 111.342 L 116.944 111.291 L 117.009 111.258 L 117.08 111.247 L 117.151 111.258 L 117.216 111.291 L 117.267 111.342 L 117.429 111.438 L 117.548 111.51 L 117.598 111.61 L 117.666 111.655 L 117.686 111.778 L 117.714 111.796 L 117.693 111.928 L 117.632 112.047 L 117.538 112.141 L 117.419 112.202 L 117.287 112.224 L 117.156 112.203 L 117.132 112.221 L 117.007 112.158 L 116.975 112.158 L 116.87 112.054 L 116.834 112.042 L 116.794 112.02 L 116.75 111.989 L 116.703 111.95 L 116.657 111.898 L 116.609 111.828 L 116.553 111.735 L 116.489 111.619 L 116.414 111.473 L 116.342 111.335 L 116.265 111.178 L 116.184 111.005 L 116.095 110.817 L 115.992 110.609 L 115.871 110.38 L 115.945 110.525 L 115.807 110.281 L 115.657 110.034 L 115.496 109.787 L 115.327 109.542 L 115.153 109.298 L 114.977 109.054 L 114.802 108.808 L 114.629 108.56 L 114.465 108.32 L 114.316 108.091 L 114.181 107.869 L 114.061 107.648 L 113.987 107.503 L 113.876 107.274 L 113.767 107.033 L 113.658 106.778 L 113.544 106.508 L 113.423 106.222 L 113.292 105.922 L 113.149 105.612 L 112.992 105.291 L 112.822 104.96 L 112.647 104.626 L 112.472 104.29 L 112.305 103.961 L 112.147 103.638 L 111.992 103.31 L 111.837 102.971 L 111.68 102.619 L 111.519 102.252 L 111.351 101.869 L 111.172 101.468 L 110.981 101.049 L 110.782 100.622 L 110.576 100.191 L 110.356 99.7522 L 110.131 99.3131 L 109.9 98.8676 L 109.665 98.4065 L 109.425 97.9332 L 109.183 97.4538 L 108.941 96.9575 L 108.699 96.4463 L 108.456 95.9252 L 108.209 95.4048 L 107.959 94.8923 L 107.717 94.396 L 107.481 93.9013 L 107.249 93.4018 L 107.013 92.8808 L 106.774 92.338 L 106.531 91.7771 L 106.282 91.2045 L 106.023 90.6147 L 105.758 90.0202 L 105.487 89.4163 L 105.206 88.7902 L 104.923 88.1444 L 104.644 87.4838 L 104.367 86.8019 L 104.102 86.1214 L 103.852 85.4465 L 103.618 84.7756 L 103.394 84.1139 L 103.174 83.4585 L 102.948 82.7935 L 102.722 82.1317 L 102.495 81.4716 L 102.258 80.8052 L 102.01 80.1362 L 101.745 79.4639 L 101.461 78.7704 L 101.16 78.0607 L 100.838 77.3202 L 100.498 76.5542 L 100.147 75.7733 L 99.7926 74.998 L 99.442 74.2316 L 99.0993 73.476 L 98.7643 72.7252 L 98.4347 71.9844 L 98.1007 71.2605 L 97.7473 70.5458 L 97.3747 69.8374 L 97.449 69.9827 L 97.074 69.2968 L 96.7007 68.6236 L 96.3223 67.9381 L 95.9319 67.2175 L 95.8576 67.0722 L 95.4539 66.3041 L 95.0321 65.4767 L 94.6099 64.616 L 94.1926 63.7288 L 93.7781 62.8145 L 93.3649 61.8887 L 92.9445 60.9632 L 92.5029 60.0315 L 92.0509 59.1225 L 91.5908 58.2364 L 91.6651 58.3817 L 91.1975 57.5088 L 90.7347 56.6561 L 90.286 55.8294 L 89.8493 55.0135 L 89.775 54.8682 L 89.3646 54.0796 L 88.9855 53.3193 L 88.639 52.5905 L 88.3194 51.8986 L 88.0122 51.2383 L 87.7032 50.589 L 87.3939 49.9595 L 87.0785 49.347 L 87.1528 49.4922 L 86.828 48.8885 L 86.5027 48.2992 L 86.1829 47.7272 L 85.864 47.1609 L 85.5526 46.6135 L 85.2525 46.0897 L 84.9718 45.6022 L 84.7175 45.164 L 84.4907 44.7823 L 84.2913 44.4523 L 84.1246 44.1717 L 83.9868 43.9315 L 83.8727 43.7266 L 83.7779 43.5523 L 83.7036 43.407 L 83.6259 43.2579 L 83.5658 43.1286 L 83.5248 43.0169 L 83.5033 42.9203 L 83.4776 42.7592 L 83.4707 42.6822 L 83.4722 42.6299 L 83.4975 42.4687 L 83.5043 42.4424 L 83.5782 42.297 L 83.6933 42.1813 L 83.705 42.1736 L 83.8503 42.0993 L 84.0115 42.0736 L 84.0262 42.0742 L 84.1874 42.0995 L 84.2035 42.1019 L 84.0423 42.0767 L 84.0596 42.0785 L 84.0791 42.0793 L 84.1016 42.0794 L 84.1261 42.0791 L 84.1543 42.0783 L 84.1861 42.0769 L 84.2211 42.0757 L 84.2584 42.0773 L 84.4197 42.1026 L 84.457 42.1122 L 84.6027 42.1861 L 84.6411 42.2093 L 84.6816 42.2467 L 84.7975 42.362 L 84.8376 42.4116 L 84.875 42.4691 L 84.9118 42.5334 L 84.9502 42.604 L 84.9913 42.6812 L 85.0327 42.7611 L 85.0726 42.8408 L 84.9793 42.748 L 85.0251 42.8316 L 85.0693 42.9077 L 85.1165 42.9695 L 85.1756 43.0085 L 85.086 42.9631 L 85.1525 42.9721 L 85.2215 42.9581 Z" style='fill:rgba(0,0,0,1); stroke:none' />

<path d="M 14.0795 114.494 L 14.0795 114.494 L 14.0611 114.61 L 14.0078 114.715 L 13.9247 114.798 L 13.82 114.852 L 13.704 114.87 L 13.5879 114.852 L 13.4832 114.799 L 13.3999 114.715 L 13.3464 114.611 L 13.3279 114.495 L 13.3681 114.478 L 13.3857 114.462 L 13.3754 114.449 L 13.3915 114.55 L 13.3603 114.547 L 13.411 114.646 L 13.3766 114.657 L 13.321 114.548 L 13.2852 114.547 L 13.256 114.54 L 13.234 114.402 L 13.2118 114.385 L 13.2346 114.24 L 13.3012 114.108 L 13.2982 114.078 L 13.4062 113.969 L 13.4339 113.934 L 13.5746 113.862 L 13.6373 113.827 L 13.7241 113.793 L 13.8268 113.761 L 13.942 113.731 L 14.0683 113.704 L 14.2296 113.679 L 14.3715 113.657 L 14.5324 113.637 L 14.7201 113.616 L 14.9382 113.596 L 15.1943 113.574 L 15.4951 113.548 L 15.8475 113.516 L 16.243 113.48 L 16.679 113.439 L 17.1449 113.396 L 17.6331 113.355 L 18.1458 113.312 L 18.68 113.27 L 19.2223 113.228 L 19.7894 113.186 L 20.3774 113.143 L 20.9955 113.101 L 21.647 113.059 L 22.3314 113.019 L 23.0299 112.982 L 23.7573 112.945 L 24.5125 112.904 L 25.299 112.855 L 26.1351 112.799 L 27.0084 112.733 L 27.8876 112.663 L 28.7915 112.593 L 29.7139 112.526 L 30.6481 112.46 L 31.6116 112.393 L 32.6084 112.324 L 33.6045 112.254 L 34.6221 112.183 L 35.6662 112.111 L 36.7329 112.036 L 37.8281 111.96 L 38.9358 111.884 L 40.0546 111.808 L 41.2251 111.732 L 42.4113 111.656 L 43.586 111.579 L 44.7677 111.496 L 45.988 111.407 L 47.2423 111.313 L 48.5296 111.219 L 49.8161 111.128 L 51.0881 111.044 L 52.3655 110.965 L 53.6541 110.891 L 54.9152 110.825 L 56.1781 110.765 L 57.4328 110.712 L 58.6592 110.664 L 59.8713 110.618 L 61.1001 110.578 L 62.3452 110.547 L 63.6086 110.524 L 64.8648 110.507 L 66.1077 110.492 L 67.3623 110.478 L 68.6349 110.467 L 69.8891 110.462 L 71.1573 110.461 L 72.4285 110.461 L 73.6843 110.462 L 74.9418 110.463 L 76.219 110.464 L 77.4854 110.463 L 78.7671 110.453 L 80.0499 110.432 L 81.3181 110.402 L 82.587 110.365 L 83.8621 110.322 L 85.114 110.276 L 86.3764 110.227 L 87.6334 110.179 L 88.8613 110.13 L 90.0707 110.084 L 91.2783 110.042 L 92.471 110.01 L 93.6488 109.988 L 94.7999 109.973 L 95.9351 109.963 L 97.0454 109.959 L 98.132 109.958 L 99.1895 109.958 L 100.252 109.958 L 101.314 109.957 L 102.353 109.959 L 103.37 109.968 L 104.368 109.989 L 105.322 110.019 L 106.253 110.056 L 107.15 110.099 L 107.99 110.147 L 108.786 110.199 L 109.561 110.253 L 110.299 110.309 L 111.014 110.366 L 111.696 110.42 L 112.335 110.471 L 112.929 110.516 L 113.478 110.56 L 113.97 110.6 L 114.412 110.635 L 114.795 110.664 L 115.115 110.69 L 115.375 110.718 L 115.579 110.748 L 115.734 110.781 L 115.847 110.815 L 115.986 110.837 L 116.053 110.87 L 116.091 110.908 L 116.111 110.953 L 116 110.936 L 116.028 110.993 L 116.058 111.061 L 116.129 111.072 L 116.193 111.105 L 116.244 111.155 L 116.276 111.219 L 116.288 111.289 L 116.277 111.36 L 116.244 111.424 L 116.193 111.475 L 116.13 111.507 L 116.059 111.519 L 116.029 111.596 L 116.002 111.652 L 115.891 111.634 L 115.847 111.664 L 115.791 111.681 L 115.709 111.693 L 115.848 111.715 L 115.735 111.723 L 115.58 111.727 L 115.377 111.728 L 115.117 111.722 L 114.796 111.707 L 114.414 111.68 L 113.972 111.645 L 113.479 111.604 L 112.931 111.56 L 112.337 111.515 L 111.698 111.464 L 111.015 111.409 L 110.301 111.353 L 109.563 111.297 L 108.787 111.242 L 107.992 111.191 L 107.151 111.143 L 106.255 111.1 L 105.323 111.063 L 104.37 111.033 L 103.372 111.012 L 102.354 111.003 L 101.316 111.001 L 100.254 111.002 L 99.1912 111.002 L 98.1337 111.002 L 97.0471 111.003 L 95.9368 111.007 L 94.8016 111.017 L 93.6505 111.032 L 92.4727 111.054 L 91.28 111.086 L 90.0724 111.128 L 88.863 111.174 L 87.635 111.222 L 86.3781 111.271 L 85.1157 111.319 L 83.8637 111.366 L 82.5887 111.409 L 81.3198 111.446 L 80.0515 111.476 L 78.7687 111.497 L 77.4871 111.506 L 76.2206 111.508 L 74.9435 111.507 L 73.686 111.506 L 72.4302 111.505 L 71.159 111.504 L 69.8908 111.506 L 68.6366 111.511 L 67.3639 111.522 L 66.1093 111.536 L 64.8665 111.551 L 63.6103 111.568 L 62.3469 111.59 L 61.1018 111.622 L 59.8729 111.662 L 58.6608 111.708 L 57.4345 111.756 L 56.1798 111.809 L 54.9169 111.869 L 53.6558 111.935 L 52.3672 112.009 L 51.0897 112.087 L 49.8178 112.172 L 48.5313 112.263 L 47.244 112.357 L 45.9897 112.45 L 44.7694 112.54 L 43.5877 112.623 L 42.413 112.7 L 41.2268 112.775 L 40.0563 112.852 L 38.9375 112.927 L 37.8298 113.004 L 36.7346 113.08 L 35.6679 113.155 L 34.6238 113.227 L 33.6062 113.298 L 32.6101 113.368 L 31.6133 113.437 L 30.6498 113.504 L 29.7156 113.569 L 28.7932 113.637 L 27.8892 113.707 L 27.01 113.777 L 26.1368 113.843 L 25.3007 113.899 L 24.5141 113.947 L 23.759 113.989 L 23.0316 114.026 L 22.3331 114.062 L 21.6486 114.103 L 20.9972 114.145 L 20.379 114.187 L 19.7911 114.229 L 19.224 114.272 L 18.6816 114.313 L 18.1474 114.356 L 17.6348 114.399 L 17.1466 114.44 L 16.6806 114.483 L 16.2446 114.524 L 15.8492 114.56 L 15.4968 114.592 L 15.196 114.618 L 14.9399 114.64 L 14.7217 114.66 L 14.5341 114.68 L 14.3732 114.701 L 14.2312 114.723 L 14.3925 114.697 L 14.2665 114.724 L 14.1514 114.755 L 14.0477 114.784 L 13.9576 114.807 L 13.8882 114.822 L 14.0289 114.75 L 13.9828 114.76 L 14.0911 114.652 L 14.0632 114.66 L 14.13 114.529 L 14.153 114.383 L 14.1305 114.4 L 14.1081 114.262 L 14.0869 114.285 L 14.0628 114.306 L 14.0071 114.197 L 13.9859 114.227 L 14.0367 114.326 L 14.0135 114.346 L 14.0299 114.447 L 14.0223 114.461 L 14.04 114.477 L 14.0795 114.494 Z" style='fill:rgba(0,0,0,1); stroke:none' />



</svg>