<svg viewBox="-2.76712 -4.77329 131.851 129.83" width="685.209839" height="674.705994" xmlns="http://www.w3.org/2000/svg" xmlns:xlink="http://www.w3.org/1999/xlink">

<path d="M 60.3318 6.79011 L 60.3318 6.79011 L 60.4163 6.70515 L 60.5231 6.65055 L 60.6415 6.63168 L 60.7599 6.65024 L 60.8669 6.70453 L 60.9519 6.78904 L 61.0066 6.89578 L 61.0258 7.01418 L 61.0071 7.13266 L 60.9526 7.23963 L 60.8715 7.25608 L 60.798 7.32968 L 60.7087 7.35875 L 60.6218 7.40333 L 60.515 7.46075 L 60.4018 7.55069 L 60.5012 7.49971 L 60.3896 7.61463 L 60.2643 7.7555 L 60.117 7.92468 L 59.9547 8.12018 L 60.0587 8.01601 L 59.8931 8.23695 L 59.721 8.49313 L 59.5331 8.79554 L 59.3258 9.13871 L 59.0955 9.542 L 58.8423 10.0165 L 58.5599 10.5614 L 58.2338 11.1724 L 57.8501 11.8631 L 57.4232 12.6217 L 56.9447 13.4828 L 56.4192 14.4435 L 55.8657 15.4687 L 55.3076 16.5179 L 54.7365 17.6016 L 54.1532 18.7197 L 53.5469 19.8911 L 52.9314 21.0593 L 52.3141 22.178 L 51.6849 23.2942 L 51.0414 24.4433 L 50.4315 25.5613 L 49.8355 26.6957 L 49.2679 27.8214 L 49.342 27.6758 L 48.8196 28.7474 L 48.7455 28.893 L 48.2504 29.9075 L 47.7682 30.8679 L 47.3111 31.7494 L 46.8568 32.6008 L 46.4219 33.4077 L 46.0247 34.1375 L 45.6603 34.8092 L 45.3195 35.458 L 45.0246 36.0469 L 45.0987 35.9013 L 44.84 36.4471 L 44.6168 36.9355 L 44.4185 37.3701 L 44.2431 37.7618 L 44.0934 38.1021 L 43.9732 38.3736 L 43.8762 38.5831 L 43.7962 38.7343 L 43.7359 38.8338 L 43.6907 38.8902 L 43.627 39.0153 L 43.5278 39.1147 L 43.5039 39.1039 L 43.3855 39.1647 L 43.2541 39.1859 L 43.1226 39.1652 L 43.004 39.1048 L 42.9097 39.0106 L 42.8491 38.8922 L 42.8282 38.7608 L 42.8588 38.6803 L 42.8781 38.5572 L 42.9452 38.3727 L 43.0808 38.0909 L 43.281 37.7543 L 43.3127 37.6919 L 43.362 37.6424 L 43.4242 37.6105 L 43.4933 37.5995 L 43.5625 37.6103 L 43.6249 37.642 L 43.6744 37.6913 L 43.7064 37.7536 L 43.7176 37.8227 L 43.7067 37.8918 L 43.66 38.278 L 43.6333 38.5951 L 43.6364 38.8022 L 43.6558 38.679 L 43.6793 38.7594 L 43.658 38.628 L 43.5972 38.5095 L 43.5029 38.4157 L 43.3842 38.3555 L 43.2527 38.3349 L 43.1213 38.3558 L 43.0028 38.4164 L 42.9995 38.3899 L 42.9006 38.4894 L 42.8371 38.6144 L 42.842 38.545 L 42.8654 38.4336 L 42.9143 38.2724 L 42.9901 38.056 L 43.1007 37.7814 L 43.2486 37.4405 L 43.4246 37.049 L 43.6235 36.6146 L 43.847 36.1263 L 44.1057 35.5805 L 44.1796 35.435 L 44.4744 34.8462 L 44.8153 34.1973 L 45.1796 33.5256 L 45.5769 32.7959 L 46.0117 31.9889 L 46.466 31.1375 L 46.9231 30.256 L 47.4054 29.2956 L 47.9004 28.2811 L 47.8265 28.4266 L 48.3489 27.355 L 48.4228 27.2095 L 48.9905 26.0838 L 49.5864 24.9494 L 50.1963 23.8314 L 50.8398 22.6823 L 51.469 21.5661 L 52.0864 20.4475 L 52.7019 19.2792 L 53.3082 18.1078 L 53.8914 16.9898 L 54.4625 15.906 L 55.0206 14.8568 L 55.5742 13.8316 L 56.0997 12.8709 L 56.5782 12.0099 L 57.0051 11.2513 L 57.3888 10.5606 L 57.7147 9.9494 L 57.9966 9.40416 L 58.2493 8.92924 L 58.4811 8.5271 L 58.6966 8.18984 L 58.9025 7.90045 L 59.1008 7.6633 L 59.2975 7.4649 L 59.4011 7.36073 L 59.5888 7.2 L 59.7655 7.07116 L 59.9267 6.9796 L 60.0808 6.92297 L 60.1802 6.87214 L 60.3138 6.8449 L 60.4279 6.80991 L 60.341 6.85436 L 60.4069 6.79306 L 60.3337 6.86667 L 60.3318 6.79011 Z" style='fill:rgba(255,215,0,0.9); stroke:none' />

<path d="M 61.7734 6.09799 L 61.7734 6.09799 L 61.8913 6.11645 L 61.9977 6.17046 L 62.0822 6.25452 L 62.1367 6.3607 L 62.1558 6.47847 L 62.1371 6.59632 L 62.083 6.70273 L 61.9986 6.78725 L 61.8924 6.84171 L 61.7747 6.86078 L 61.7332 6.8128 L 61.6968 6.79303 L 61.6667 6.80295 L 61.6457 6.83283 L 61.6393 6.8682 L 61.7604 6.84859 L 61.8696 6.79256 L 61.9564 6.70563 L 62.0121 6.59618 L 62.0313 6.47496 L 62.0116 6.35382 L 61.9556 6.24461 L 61.8687 6.15814 L 61.7592 6.10259 L 61.7893 6.08263 L 61.9073 6.14255 L 61.9755 6.15337 L 62.0666 6.19212 L 62.1731 6.25335 L 62.2898 6.33643 L 62.4018 6.44783 L 62.529 6.56248 L 62.6669 6.71113 L 62.8196 6.89076 L 62.9951 7.11104 L 63.1941 7.37437 L 63.4221 7.68409 L 63.6842 8.04167 L 63.9843 8.45804 L 64.3095 8.92079 L 64.6739 9.43996 L 65.0818 10.0017 L 65.5341 10.5958 L 66.0331 11.2262 L 66.5671 11.8772 L 67.1214 12.5354 L 67.6951 13.2165 L 68.2692 13.9182 L 68.835 14.6442 L 69.4093 15.4184 L 70.005 16.2519 L 70.6016 17.1272 L 71.2131 18.0837 L 71.7975 19.068 L 72.3406 20.0582 L 72.4151 20.2035 L 72.9111 21.1854 L 73.3793 22.1886 L 73.8091 23.1687 L 74.2303 24.1552 L 74.6529 25.1252 L 75.0722 26.0376 L 75.4848 26.8941 L 75.8927 27.6998 L 75.8182 27.5545 L 76.2126 28.2918 L 76.5934 28.9691 L 76.969 29.6068 L 77.3342 30.2024 L 77.69 30.7704 L 78.0383 31.3268 L 78.3628 31.8635 L 78.6724 32.4114 L 78.7469 32.5567 L 79.0366 33.1096 L 79.2911 33.6505 L 79.5174 34.1809 L 79.7233 34.706 L 79.9078 35.2134 L 80.0775 35.723 L 80.2371 36.223 L 80.3911 36.6892 L 80.5439 37.1153 L 80.7007 37.5003 L 80.8598 37.8352 L 80.7852 37.6898 L 80.9519 37.9927 L 81.1232 38.2596 L 81.2919 38.4852 L 81.4535 38.6726 L 81.3415 38.5613 L 81.4964 38.7187 L 81.6292 38.8435 L 81.7411 38.9418 L 81.8275 39.0134 L 81.7086 38.9531 L 81.7661 39.0098 L 81.8773 39.0662 L 81.8873 39.1156 L 81.9672 39.1951 L 82.0187 39.2955 L 81.9725 39.3318 L 81.9876 39.4255 L 81.9082 39.4491 L 81.8972 39.5187 L 81.8653 39.5815 L 81.8155 39.6314 L 81.7528 39.6635 L 81.6833 39.6748 L 81.6137 39.6638 L 81.551 39.6318 L 81.5011 39.582 L 81.4691 39.5194 L 81.458 39.4498 L 81.3808 39.4265 L 81.3957 39.5202 L 81.3331 39.5194 L 81.3845 39.6198 L 81.4644 39.6996 L 81.4101 39.7114 L 81.5212 39.7679 L 81.4469 39.7634 L 81.3282 39.703 L 81.2148 39.6687 L 81.0782 39.6044 L 80.9229 39.5108 L 80.7491 39.3795 L 80.6371 39.2678 L 80.4575 39.0933 L 80.2805 38.8738 L 80.1074 38.6083 L 79.9411 38.305 L 79.8668 38.1596 L 79.7084 37.8244 L 79.5519 37.4393 L 79.3991 37.0132 L 79.2451 36.5471 L 79.0855 36.047 L 78.9158 35.5374 L 78.7312 35.03 L 78.5254 34.5049 L 78.2991 33.9745 L 78.0445 33.4336 L 77.7548 32.8808 L 77.8292 33.026 L 77.5196 32.4781 L 77.1951 31.9414 L 76.8468 31.385 L 76.491 30.817 L 76.1258 30.2214 L 75.7502 29.5837 L 75.3694 28.9064 L 74.975 28.1691 L 74.9007 28.0239 L 74.4927 27.2182 L 74.0802 26.3616 L 73.6609 25.4492 L 73.2383 24.4793 L 72.817 23.4927 L 72.3873 22.5126 L 71.919 21.5094 L 71.423 20.5276 L 71.4974 20.6728 L 70.9543 19.6826 L 70.3699 18.6983 L 69.7584 17.7418 L 69.1618 16.8665 L 68.5661 16.033 L 67.9918 15.2588 L 67.426 14.5328 L 66.8519 13.8311 L 66.2782 13.15 L 65.7239 12.4918 L 65.1899 11.8408 L 64.6909 11.2104 L 64.2386 10.6163 L 63.8307 10.0546 L 63.4663 9.53539 L 63.1411 9.07262 L 62.841 8.65623 L 62.579 8.29867 L 62.3506 7.98913 L 62.1511 7.72624 L 61.9751 7.50631 L 61.8242 7.32535 L 61.6947 7.17064 L 61.5853 7.04304 L 61.6973 7.15484 L 61.5994 7.04581 L 61.5153 6.95355 L 61.4496 6.87967 L 61.4112 6.82778 L 61.5291 6.88787 L 61.5181 6.84906 L 61.4088 6.79335 L 61.3218 6.70657 L 61.266 6.59737 L 61.2467 6.47622 L 61.2656 6.35503 L 61.3212 6.2457 L 61.4077 6.15877 L 61.5169 6.10291 L 61.638 6.08361 L 61.6445 6.11979 L 61.6657 6.15354 L 61.6958 6.16546 L 61.7321 6.14611 L 61.7734 6.09799 Z" style='fill:rgba(255,215,0,0.9); stroke:none' />

<path d="M 44.0827 39.3127 L 44.0827 39.3127 L 44.0641 39.4304 L 44.01 39.5367 L 43.9257 39.6212 L 43.8197 39.6756 L 43.702 39.6946 L 43.5843 39.676 L 43.4781 39.6219 L 43.3936 39.5376 L 43.3394 39.4316 L 43.3206 39.3139 L 43.369 39.2923 L 43.3883 39.2684 L 43.4037 39.3654 L 43.3891 39.3449 L 43.347 39.3299 L 43.3978 39.4291 L 43.3497 39.4264 L 43.4366 39.5131 L 43.3943 39.5149 L 43.355 39.5164 L 43.3188 39.521 L 43.4498 39.5878 L 43.4255 39.5981 L 43.2891 39.5286 L 43.266 39.5339 L 43.2518 39.5358 L 43.1373 39.4216 L 43.0638 39.2778 L 43.0384 39.1183 L 43.0634 38.9588 L 43.1365 38.8149 L 43.2503 38.7005 L 43.3941 38.6269 L 43.4099 38.6151 L 43.5709 38.5894 L 43.6391 38.5847 L 43.761 38.5842 L 43.9166 38.5848 L 44.1064 38.5852 L 44.3391 38.5853 L 44.6064 38.5853 L 44.894 38.5853 L 45.2162 38.5858 L 45.5818 38.5869 L 45.9937 38.5875 L 46.4538 38.5834 L 46.9694 38.5675 L 47.526 38.5356 L 48.1302 38.4882 L 48.7661 38.4299 L 49.4236 38.3651 L 50.1328 38.2927 L 50.9208 38.2105 L 51.7666 38.128 L 52.6697 38.0526 L 53.59 37.9896 L 54.4978 37.9404 L 55.4278 37.9015 L 56.3981 37.8688 L 57.3731 37.8451 L 58.3851 37.8244 L 59.4133 37.8014 L 60.4462 37.7778 L 61.5132 37.7541 L 62.6131 37.7344 L 63.6829 37.718 L 64.7633 37.7031 L 65.8434 37.6904 L 66.8935 37.6816 L 67.9233 37.6746 L 68.9271 37.6713 L 69.8642 37.6707 L 70.7833 37.671 L 71.6947 37.6712 L 72.5727 37.6713 L 73.4101 37.6713 L 74.2112 37.6713 L 74.9791 37.6712 L 75.7504 37.6712 L 76.5055 37.6714 L 77.213 37.6719 L 77.8635 37.6727 L 78.4519 37.6724 L 78.9653 37.6669 L 79.4337 37.6516 L 79.86 37.6292 L 80.2455 37.6082 L 80.6006 37.5908 L 80.9268 37.5774 L 81.2001 37.5722 L 81.4233 37.5791 L 81.5976 37.5948 L 81.725 37.6145 L 81.8113 37.6358 L 81.8618 37.6587 L 81.8698 37.6859 L 81.7468 37.7055 L 81.6359 37.7622 L 81.5481 37.8505 L 81.4917 37.9615 L 81.4724 38.0846 L 81.492 38.2076 L 81.5487 38.3185 L 81.637 38.4067 L 81.748 38.4632 L 81.8711 38.4827 L 81.8136 38.4455 L 81.6703 38.3922 L 81.4625 38.3226 L 81.3929 38.3116 L 81.3301 38.2796 L 81.2801 38.2297 L 81.2481 38.167 L 81.237 38.0974 L 81.2479 38.0278 L 81.2798 37.965 L 81.3294 37.9151 L 81.3922 37.883 L 81.4618 37.8719 L 81.6694 37.7857 L 81.8125 37.7245 L 81.8698 37.6859 L 81.9929 37.7051 L 82.1041 37.7616 L 82.1924 37.8494 L 82.2493 37.9603 L 82.2692 38.0833 L 82.2497 38.2064 L 82.1932 38.3176 L 82.105 38.4059 L 81.9941 38.4628 L 81.8711 38.4827 L 81.8632 38.5105 L 81.8127 38.5338 L 81.7265 38.5546 L 81.5992 38.5732 L 81.4249 38.5898 L 81.2017 38.605 L 80.9284 38.6206 L 80.6023 38.6363 L 80.2472 38.6531 L 79.8617 38.6733 L 79.4354 38.6954 L 78.967 38.7107 L 78.4535 38.7162 L 77.8652 38.7166 L 77.2146 38.7157 L 76.5072 38.7152 L 75.752 38.715 L 74.9808 38.7151 L 74.2128 38.7151 L 73.4118 38.7151 L 72.5743 38.7151 L 71.6964 38.715 L 70.785 38.7148 L 69.8659 38.7145 L 68.9288 38.7151 L 67.9249 38.7184 L 66.8951 38.7254 L 65.8451 38.7343 L 64.7649 38.7469 L 63.6846 38.7618 L 62.6148 38.7782 L 61.5148 38.7979 L 60.4479 38.8216 L 59.415 38.8452 L 58.3868 38.8683 L 57.3747 38.8889 L 56.3998 38.9126 L 55.4295 38.9453 L 54.4995 38.9842 L 53.5917 39.0334 L 52.6714 39.0964 L 51.7683 39.1719 L 50.9225 39.2544 L 50.1344 39.3365 L 49.4253 39.4089 L 48.7678 39.4737 L 48.1319 39.5321 L 47.5276 39.5794 L 46.971 39.6113 L 46.4555 39.6272 L 45.9954 39.6313 L 45.5835 39.6307 L 45.2179 39.6296 L 44.8957 39.6291 L 44.6081 39.629 L 44.3407 39.6291 L 44.108 39.629 L 43.9183 39.6289 L 43.7626 39.6291 L 43.6407 39.6301 L 43.5726 39.6326 L 43.7337 39.6065 L 43.7147 39.6085 L 43.8584 39.5348 L 43.9727 39.4203 L 44.046 39.2763 L 44.0712 39.1167 L 44.0454 38.9572 L 43.9716 38.8135 L 43.8572 38.6996 L 43.8586 38.7156 L 43.8629 38.7361 L 43.7264 38.6668 L 43.7389 38.693 L 43.8701 38.7596 L 43.8809 38.7901 L 43.8904 38.8298 L 43.8964 38.8781 L 43.9833 38.9646 L 43.9737 39.0093 L 44.0246 39.1086 L 44.0066 39.1432 L 44.0007 39.1704 L 44.0164 39.2674 L 44.0361 39.2913 L 44.0827 39.3127 Z" style='fill:rgba(255,215,0,0.9); stroke:none' />

<path d="M 41.4415 43.4534 L 41.4415 43.4534 L 41.3566 43.5385 L 41.2497 43.5933 L 41.1312 43.6125 L 41.0126 43.5938 L 40.9056 43.5393 L 40.8206 43.4544 L 40.7659 43.3475 L 40.747 43.229 L 40.7656 43.1104 L 40.82 43.0034 L 40.8786 43.0036 L 40.9103 42.9874 L 40.8662 43.0743 L 40.8662 43.0468 L 40.8388 43.0135 L 40.8215 43.1238 L 40.7856 43.1035 L 40.7548 43.0854 L 40.7304 43.0688 L 40.7521 42.9302 L 40.733 42.9155 L 40.7996 42.7845 L 40.9032 42.6803 L 41.034 42.6134 L 41.1792 42.5903 L 41.3244 42.613 L 41.4556 42.6796 L 41.5597 42.7832 L 41.6269 42.914 L 41.6504 43.0592 L 41.6686 43.0756 L 41.6447 43.2268 L 41.6482 43.2848 L 41.6286 43.3769 L 41.5949 43.4882 L 41.5517 43.6205 L 41.5009 43.7787 L 41.4376 43.9738 L 41.3554 44.2059 L 41.2499 44.4904 L 41.1221 44.8238 L 40.973 45.2005 L 40.8036 45.6218 L 40.6056 46.1019 L 40.3761 46.6193 L 40.1129 47.1807 L 39.826 47.7705 L 39.7519 47.9161 L 39.4502 48.5212 L 39.1235 49.1542 L 38.7743 49.8195 L 38.4268 50.4592 L 38.0666 51.0931 L 37.7032 51.7102 L 37.354 52.2931 L 37.0145 52.8727 L 36.6896 53.4641 L 36.3988 54.0354 L 36.4729 53.8898 L 36.1989 54.4718 L 35.9389 55.0516 L 35.6984 55.6011 L 35.474 56.1209 L 35.262 56.6152 L 35.0639 57.0757 L 34.8745 57.5285 L 34.6949 57.9638 L 34.5315 58.3582 L 34.3797 58.7174 L 34.2343 59.0456 L 34.1041 59.3313 L 33.9887 59.5856 L 33.8887 59.7969 L 33.8114 59.9588 L 33.7528 60.0815 L 33.7118 60.1646 L 33.7313 60.0414 L 33.7114 59.9183 L 33.6544 59.8074 L 33.5661 59.7196 L 33.4549 59.6631 L 33.469 59.7043 L 33.3572 59.6868 L 33.2455 59.7046 L 33.1447 59.7561 L 33.065 59.8363 L 33.2053 59.7464 L 33.4208 59.579 L 33.47 59.5295 L 33.5322 59.4977 L 33.6012 59.4867 L 33.6703 59.4975 L 33.7326 59.5291 L 33.7821 59.5784 L 33.814 59.6406 L 33.8252 59.7095 L 33.8143 59.7786 L 33.7826 59.8409 L 33.6986 60.1036 L 33.6509 60.2605 L 33.5709 60.3407 L 33.4701 60.3924 L 33.3584 60.4105 L 33.2466 60.3928 L 33.2099 60.4215 L 33.0989 60.3649 L 33.0106 60.2767 L 32.9538 60.1658 L 32.9342 60.0427 L 32.9535 59.9196 L 32.9433 59.82 L 32.9579 59.6831 L 32.9948 59.5081 L 33.058 59.2849 L 33.1422 59.0206 L 33.2512 58.728 L 33.387 58.3967 L 33.5371 58.0369 L 33.7011 57.6427 L 33.8813 57.2076 L 34.0708 56.7549 L 34.269 56.2944 L 34.4809 55.8001 L 34.7053 55.2802 L 34.9458 54.7308 L 35.2059 54.151 L 35.4798 53.5689 L 35.5537 53.4235 L 35.8445 52.8522 L 36.1694 52.2608 L 36.5089 51.6813 L 36.8582 51.0983 L 37.2215 50.4812 L 37.5817 49.8473 L 37.9292 49.2076 L 38.2784 48.5424 L 38.6052 47.9093 L 38.9068 47.3043 L 38.8329 47.4497 L 39.1198 46.8598 L 39.383 46.2984 L 39.6126 45.7811 L 39.8105 45.3009 L 39.9799 44.8797 L 40.129 44.503 L 40.2568 44.1696 L 40.3624 43.8851 L 40.4444 43.6529 L 40.5071 43.4577 L 40.5573 43.2992 L 40.6022 43.1675 L 40.6455 43.0593 L 40.6863 42.974 L 40.7137 42.926 L 40.6901 43.0772 L 40.7103 43.0607 L 40.7334 43.2058 L 40.8003 43.3367 L 40.9045 43.4406 L 41.0355 43.5074 L 41.1807 43.5303 L 41.3259 43.5068 L 41.4567 43.4397 L 41.5607 43.3355 L 41.6274 43.2044 L 41.6056 43.206 L 41.6275 43.0674 L 41.6021 43.0841 L 41.572 43.1023 L 41.5357 43.1227 L 41.5183 43.233 L 41.4825 43.2459 L 41.4596 43.266 L 41.4153 43.353 L 41.416 43.3927 L 41.4415 43.4534 Z" style='fill:rgba(255,255,255,1); stroke:none' />

<path d="M 42.0625 43.5871 L 42.0625 43.5871 L 42.1805 43.6055 L 42.2871 43.6596 L 42.3717 43.7438 L 42.4262 43.8501 L 42.4453 43.968 L 42.4267 44.086 L 42.3724 44.1926 L 42.288 44.2772 L 42.1817 44.3317 L 42.0637 44.3508 L 42.0282 44.302 L 41.9904 44.2823 L 41.9548 44.2935 L 41.9394 44.3256 L 41.8292 44.3082 L 41.7298 44.2575 L 41.6508 44.1786 L 41.6 44.0794 L 41.5825 43.9692 L 41.5997 43.8591 L 41.6502 43.7597 L 41.7288 43.6806 L 41.8281 43.6299 L 41.9383 43.6123 L 41.9579 43.5765 L 42.0188 43.5457 L 42.1123 43.5204 L 42.2238 43.4987 L 42.3528 43.4796 L 42.4982 43.4635 L 42.6652 43.4525 L 42.8486 43.4473 L 43.0509 43.4462 L 43.2642 43.4465 L 43.4985 43.4469 L 43.746 43.4471 L 44.0104 43.4471 L 44.3048 43.447 L 44.6427 43.447 L 45.0161 43.4469 L 45.438 43.447 L 45.9193 43.4475 L 46.4688 43.449 L 47.1075 43.45 L 47.8513 43.4453 L 48.6639 43.4248 L 49.5501 43.3827 L 50.494 43.3249 L 51.4861 43.2608 L 52.558 43.1925 L 53.6901 43.1172 L 54.8493 43.0387 L 56.0518 42.9606 L 57.2783 42.8853 L 58.4842 42.8129 L 59.6787 42.7396 L 60.905 42.6697 L 62.154 42.6084 L 63.4323 42.5519 L 64.6942 42.5022 L 65.9163 42.4623 L 67.1432 42.4343 L 68.3673 42.4158 L 69.4916 42.4087 L 70.5662 42.4081 L 71.6208 42.409 L 72.6233 42.4092 L 73.5699 42.4089 L 74.4673 42.4097 L 75.3101 42.4144 L 76.1168 42.4248 L 76.9021 42.4351 L 77.6521 42.4399 L 78.3675 42.4407 L 79.0572 42.4403 L 79.7158 42.4399 L 80.3521 42.44 L 80.9523 42.4401 L 81.5159 42.4397 L 82.0369 42.4377 L 82.5183 42.435 L 82.9228 42.4385 L 83.2583 42.4447 L 83.5295 42.4548 L 83.7318 42.4737 L 83.8536 42.5013 L 83.8752 42.5374 L 83.7638 42.5552 L 83.6633 42.6066 L 83.5838 42.6866 L 83.5327 42.7871 L 83.5152 42.8986 L 83.533 43.0101 L 83.5844 43.1106 L 83.6643 43.1904 L 83.7649 43.2416 L 83.8764 43.2593 L 83.7696 43.1905 L 83.5619 43.0863 L 83.4924 43.0753 L 83.4298 43.0434 L 83.38 42.9937 L 83.3479 42.9311 L 83.3369 42.8617 L 83.3478 42.7923 L 83.3796 42.7296 L 83.4291 42.6798 L 83.4917 42.6478 L 83.5611 42.6367 L 83.7687 42.5833 L 83.8752 42.5374 L 83.9868 42.5549 L 84.0875 42.606 L 84.1674 42.6856 L 84.219 42.786 L 84.237 42.8975 L 84.2194 43.009 L 84.1682 43.1097 L 84.0883 43.1897 L 83.9879 43.2412 L 83.8764 43.2593 L 83.8549 43.2983 L 83.7331 43.3253 L 83.5309 43.3525 L 83.2598 43.3846 L 82.9243 43.4168 L 82.5199 43.4458 L 82.0385 43.4706 L 81.5176 43.483 L 80.9539 43.4855 L 80.3538 43.4848 L 79.7175 43.484 L 79.0588 43.484 L 78.3692 43.4844 L 77.6538 43.4837 L 76.9038 43.4789 L 76.1185 43.4686 L 75.3118 43.4583 L 74.469 43.4535 L 73.5716 43.4528 L 72.625 43.453 L 71.6225 43.4528 L 70.5678 43.452 L 69.4933 43.4526 L 68.369 43.4597 L 67.1449 43.4782 L 65.918 43.5062 L 64.6958 43.5461 L 63.434 43.5958 L 62.1557 43.6522 L 60.9067 43.7135 L 59.6804 43.7834 L 58.4859 43.8567 L 57.28 43.9292 L 56.0535 44.0044 L 54.8509 44.0825 L 53.6918 44.161 L 52.5597 44.2363 L 51.4878 44.3047 L 50.4957 44.3687 L 49.5518 44.4265 L 48.6656 44.4687 L 47.853 44.4892 L 47.1092 44.4938 L 46.4705 44.4928 L 45.921 44.4914 L 45.4397 44.4908 L 45.0178 44.4907 L 44.6443 44.4908 L 44.3064 44.4908 L 44.0121 44.4908 L 43.7476 44.4908 L 43.5002 44.491 L 43.2659 44.4913 L 43.0526 44.4916 L 42.8503 44.4905 L 42.6668 44.4854 L 42.4999 44.4744 L 42.3543 44.4583 L 42.2253 44.4392 L 42.1137 44.4175 L 42.0201 44.3922 L 41.9592 44.3614 L 41.9394 44.3256 L 42.0495 44.3077 L 42.1488 44.2568 L 42.2277 44.1778 L 42.2783 44.0783 L 42.2957 43.9681 L 42.2779 43.858 L 42.227 43.7587 L 42.1479 43.6801 L 42.0484 43.6296 L 41.9383 43.6123 L 41.9538 43.6444 L 41.9894 43.6555 L 42.0272 43.6359 L 42.0625 43.5871 Z" style='fill:rgba(255,255,255,1); stroke:none' />

<path d="M 83.9956 44.3283 L 83.9956 44.3283 L 84.014 44.2107 L 84.0679 44.1046 L 84.1519 44.0202 L 84.2579 43.966 L 84.3755 43.9472 L 84.4932 43.9656 L 84.5994 44.0196 L 84.6838 44.1035 L 84.7382 44.2095 L 84.7572 44.3271 L 84.7107 44.3555 L 84.6919 44.3905 L 84.7025 44.4287 L 84.7299 44.4692 L 84.7125 44.5793 L 84.7347 44.6302 L 84.679 44.7396 L 84.6844 44.7964 L 84.6779 44.8426 L 84.5787 44.942 L 84.5604 44.981 L 84.4295 45.0481 L 84.4023 45.0794 L 84.2511 45.1039 L 84.2142 45.1258 L 84.1721 45.1362 L 84.0126 45.111 L 83.9689 45.101 L 83.8235 45.0269 L 83.708 44.9116 L 83.6692 44.8714 L 83.6328 44.8065 L 83.5584 44.6611 L 83.5208 44.5837 L 83.4861 44.5092 L 83.4554 44.4396 L 83.4282 44.3755 L 83.4041 44.3239 L 83.4784 44.4691 L 83.4542 44.4281 L 83.4315 44.3903 L 83.4119 44.3555 L 83.3376 44.2102 L 83.3252 44.1757 L 83.3172 44.1366 L 83.2915 43.9755 L 83.2883 43.9283 L 83.2879 43.866 L 83.2882 43.7927 L 83.2885 43.7115 L 83.2885 43.6278 L 83.2887 43.5392 L 83.2893 43.4517 L 83.2906 43.3628 L 83.2908 43.2711 L 83.2849 43.1832 L 83.3106 43.3444 L 83.2909 43.2592 L 83.2566 43.1768 L 83.331 43.322 L 83.291 43.2481 L 83.2505 43.185 L 83.215 43.1374 L 83.1859 43.1005 L 83.1624 43.0719 L 83.1423 43.0486 L 83.2579 43.164 L 83.2483 43.1571 L 83.3937 43.2312 L 83.555 43.2567 L 83.7162 43.2306 L 83.8614 43.1561 L 83.9769 43.0404 L 84.051 42.8948 L 84.0765 42.7335 L 84.0504 42.5724 L 84.0744 42.6188 L 83.9998 42.4735 L 84.0815 42.6176 L 84.2209 42.8758 L 84.2954 43.0211 L 84.4954 43.4044 L 84.7543 43.9001 L 84.6798 43.7548 L 84.9946 44.3414 L 85.369 45.0123 L 85.7985 45.7425 L 86.2754 46.5129 L 86.7954 47.3332 L 87.3254 48.1753 L 87.8375 49.0008 L 88.3229 49.7964 L 88.7805 50.5476 L 89.209 51.2438 L 89.6293 51.9321 L 90.0349 52.6189 L 90.4113 53.2896 L 90.763 53.9476 L 90.8375 54.0929 L 91.1694 54.7391 L 91.4711 55.3407 L 91.7566 55.9144 L 92.0243 56.4614 L 92.2758 56.9847 L 92.5114 57.48 L 92.7376 57.9594 L 92.9436 58.3945 L 92.8715 58.2539 L 93.0613 58.6445 L 93.2268 58.9846 L 93.3646 59.2749 L 93.4715 59.523 L 93.5323 59.6415 L 93.6023 59.8421 L 93.6375 60.0029 L 93.6398 60.1399 L 93.5965 60.0555 L 93.5927 60.2089 L 93.6249 60.2717 L 93.6362 60.3413 L 93.6252 60.411 L 93.5931 60.4739 L 93.5433 60.5239 L 93.4805 60.5561 L 93.4108 60.5673 L 93.3412 60.5563 L 93.2783 60.5243 L 93.2284 60.4744 L 93.1068 60.4125 L 93.0636 60.3281 L 92.9525 60.2267 L 92.845 60.0894 L 92.7227 59.906 L 92.7833 60.0246 L 92.6392 59.8037 L 92.4674 59.5381 L 92.2709 59.2206 L 92.0551 58.8489 L 91.9831 58.7083 L 91.756 58.28 L 91.52 57.8038 L 91.2822 57.3092 L 91.0312 56.7857 L 90.7643 56.2385 L 90.4791 55.6647 L 90.1774 55.0631 L 89.8455 54.4169 L 89.9198 54.5622 L 89.5681 53.9042 L 89.1917 53.2335 L 88.7861 52.5467 L 88.3658 51.8584 L 87.9373 51.1622 L 87.4797 50.411 L 86.9943 49.6154 L 86.4822 48.7898 L 85.9522 47.9478 L 85.4322 47.1275 L 84.9553 46.3571 L 84.5258 45.6269 L 84.1514 44.956 L 83.8366 44.3694 L 83.7623 44.2242 L 83.5033 43.7284 L 83.3034 43.3451 L 83.3777 43.4904 L 83.2383 43.2322 L 83.1566 43.0881 L 83.0823 42.9429 L 83.0583 42.8964 L 83.0326 42.7352 L 83.0579 42.574 L 83.1318 42.4285 L 83.2468 42.3129 L 83.3921 42.2386 L 83.5533 42.2129 L 83.7146 42.2381 L 83.8602 42.312 L 83.8698 42.319 L 83.9855 42.434 L 84.0056 42.4573 L 84.0291 42.486 L 84.0582 42.5228 L 84.0937 42.5704 L 84.1342 42.6335 L 84.1742 42.7074 L 84.2487 42.8527 L 84.2829 42.9352 L 84.3026 43.0203 L 84.3287 43.1815 L 84.3347 43.2694 L 84.3344 43.3612 L 84.3332 43.45 L 84.3325 43.5376 L 84.3324 43.6262 L 84.3323 43.7099 L 84.3321 43.791 L 84.3317 43.8643 L 84.3321 43.9266 L 84.3354 43.9738 L 84.3092 43.8126 L 84.3172 43.8517 L 84.3296 43.8862 L 84.2551 43.7409 L 84.2747 43.7757 L 84.2974 43.8135 L 84.3216 43.8545 L 84.3961 43.9998 L 84.4202 44.0515 L 84.4474 44.1156 L 84.4782 44.1852 L 84.5132 44.2596 L 84.5514 44.3367 L 84.4768 44.1913 L 84.5138 44.2559 L 84.5506 44.2974 L 84.435 44.1824 L 84.2895 44.1086 L 84.33 44.1284 L 84.1705 44.1034 L 84.2125 44.115 L 84.2495 44.125 L 84.0984 44.1491 L 84.1375 44.1542 L 84.0066 44.2212 L 84.0505 44.2173 L 83.9516 44.3167 L 83.9994 44.3004 L 84.0441 44.2799 L 83.9886 44.3892 L 84.0343 44.3602 L 84.017 44.4703 L 84.0526 44.4297 L 84.0635 44.3915 L 84.0434 44.3566 L 83.9956 44.3283 Z" style='fill:rgba(255,255,255,1); stroke:none' />

<path d="M 32.2891 61.614 L 32.2891 61.614 L 32.4064 61.5953 L 32.5239 61.6137 L 32.63 61.6676 L 32.7142 61.7514 L 32.7685 61.8572 L 32.7875 61.9746 L 32.769 62.092 L 32.715 62.1981 L 32.6309 62.2824 L 32.5251 62.3366 L 32.4679 62.3084 L 32.425 62.3059 L 32.5126 62.2609 L 32.4936 62.2845 L 32.5656 62.2125 L 32.6117 62.1217 L 32.638 62.1431 L 32.6554 62.033 L 32.6376 61.923 L 32.5867 61.8238 L 32.5077 61.7452 L 32.4083 61.6948 L 32.4468 61.6663 L 32.3257 61.6474 L 32.3905 61.6177 L 32.4869 61.5925 L 32.6109 61.57 L 32.7621 61.5448 L 32.9401 61.512 L 33.142 61.4742 L 33.379 61.4384 L 33.6404 61.4101 L 33.9203 61.3889 L 34.2332 61.369 L 34.5926 61.3471 L 34.9868 61.3275 L 35.4246 61.3104 L 35.9127 61.2954 L 36.4485 61.2839 L 37.0277 61.2755 L 37.6522 61.2651 L 38.3087 61.2506 L 39.0349 61.23 L 39.8427 61.1997 L 40.7285 61.1576 L 41.6878 61.1027 L 42.7255 61.0303 L 43.8158 60.9398 L 45.0012 60.8307 L 46.236 60.7096 L 47.4852 60.5768 L 48.7655 60.4346 L 50.0805 60.2851 L 51.3716 60.1402 L 52.6775 60.0011 L 53.9736 59.873 L 55.2387 59.7641 L 56.5071 59.6736 L 57.7912 59.6048 L 59.0404 59.5604 L 60.3025 59.5332 L 61.5546 59.5195 L 62.7633 59.5156 L 63.9433 59.516 L 65.1284 59.5169 L 66.3018 59.5175 L 67.4609 59.518 L 68.5726 59.5189 L 69.6593 59.5191 L 70.7568 59.5153 L 71.8613 59.5025 L 72.9071 59.4776 L 73.9215 59.4404 L 74.9087 59.3988 L 75.8623 59.3591 L 76.8 59.3184 L 77.7221 59.2772 L 78.585 59.2446 L 79.4303 59.2189 L 80.2724 59.2006 L 81.1046 59.1897 L 81.9247 59.1859 L 82.7333 59.1857 L 83.5175 59.1862 L 84.3063 59.186 L 85.0916 59.1852 L 85.8487 59.1851 L 86.5798 59.19 L 87.2752 59.2055 L 87.8916 59.2328 L 88.4496 59.2676 L 88.9665 59.3064 L 89.4349 59.3451 L 89.8617 59.3865 L 90.258 59.4309 L 90.6239 59.4718 L 90.9698 59.5087 L 91.2886 59.5433 L 91.5701 59.5756 L 91.8184 59.6068 L 92.0408 59.6474 L 92.2533 59.7128 L 92.4829 59.807 L 92.5527 59.818 L 92.6157 59.85 L 92.6658 59.8998 L 92.6981 59.9627 L 92.7093 60.0325 L 92.6983 60.1023 L 92.6662 60.1653 L 92.6163 60.2154 L 92.5534 60.2476 L 92.4836 60.2589 L 92.2543 60.3186 L 92.042 60.3675 L 91.8197 60.4035 L 91.5715 60.4277 L 91.29 60.4416 L 90.9713 60.4489 L 90.6254 60.4503 L 90.2596 60.4415 L 89.8633 60.4191 L 89.4366 60.3882 L 88.9682 60.3519 L 88.4513 60.3125 L 87.8932 60.2769 L 87.2769 60.2493 L 86.5814 60.2337 L 85.8504 60.2289 L 85.0933 60.229 L 84.3079 60.2298 L 83.5191 60.23 L 82.735 60.2295 L 81.9263 60.2297 L 81.1062 60.2335 L 80.274 60.2444 L 79.4319 60.2627 L 78.5867 60.2884 L 77.7238 60.321 L 76.8016 60.3623 L 75.864 60.4029 L 74.9103 60.4426 L 73.9232 60.4842 L 72.9088 60.5214 L 71.8629 60.5463 L 70.7585 60.5591 L 69.661 60.5629 L 68.5743 60.5627 L 67.4626 60.5619 L 66.3035 60.5613 L 65.1301 60.5607 L 63.945 60.5598 L 62.7649 60.5594 L 61.5563 60.5633 L 60.3041 60.577 L 59.042 60.6042 L 57.7929 60.6486 L 56.5088 60.7174 L 55.2403 60.8079 L 53.9752 60.9168 L 52.6792 61.0449 L 51.3733 61.184 L 50.0822 61.3289 L 48.7671 61.4784 L 47.4869 61.6206 L 46.2377 61.7534 L 45.0029 61.8745 L 43.8174 61.9837 L 42.7272 62.0741 L 41.6895 62.1465 L 40.7302 62.2014 L 39.8444 62.2435 L 39.0366 62.2738 L 38.3103 62.2944 L 37.6539 62.3089 L 37.0294 62.3193 L 36.4502 62.3277 L 35.9144 62.3392 L 35.4263 62.3542 L 34.9884 62.3713 L 34.5942 62.3909 L 34.2349 62.4132 L 33.9219 62.4339 L 33.642 62.4556 L 33.3807 62.4815 L 33.1436 62.5068 L 32.9417 62.5228 L 32.7637 62.5238 L 32.6124 62.5107 L 32.4883 62.4896 L 32.3918 62.4635 L 32.327 62.431 L 32.2059 62.4119 L 32.1893 62.3727 L 32.09 62.3221 L 32.0111 62.2433 L 31.9603 62.1442 L 31.9428 62.0341 L 31.9601 61.9241 L 31.9929 61.9218 L 32.039 61.8312 L 32.1107 61.7591 L 32.142 61.7524 L 32.2296 61.7076 L 32.2606 61.6735 L 32.2891 61.614 Z" style='fill:rgba(255,255,255,1); stroke:none' />

<path d="M 29.9391 66.661 L 29.9391 66.661 L 29.8846 66.768 L 29.7998 66.853 L 29.693 66.9078 L 29.5745 66.9269 L 29.4561 66.9082 L 29.3492 66.8538 L 29.2642 66.7689 L 29.2095 66.6621 L 29.1907 66.5437 L 29.2092 66.4252 L 29.2677 66.4017 L 29.2516 66.5043 L 29.2756 66.4572 L 29.2643 66.4074 L 29.2308 66.3669 L 29.1943 66.3342 L 29.1638 66.3075 L 29.1393 66.2872 L 29.1186 66.2708 L 29.0994 66.2565 L 29.1235 66.4076 L 29.1032 66.4022 L 29.1752 66.5429 L 29.2872 66.6547 L 29.4281 66.7265 L 29.4097 66.7332 L 29.5693 66.7584 L 29.5463 66.7627 L 29.5216 66.7621 L 29.4936 66.7587 L 29.4633 66.7613 L 29.6245 66.7352 L 29.7698 66.6606 L 29.7385 66.6898 L 29.854 66.5741 L 29.9281 66.4285 L 29.8929 66.507 L 29.8468 66.6391 L 29.7851 66.8285 L 29.7041 67.0818 L 29.5982 67.4176 L 29.462 67.8307 L 29.2873 68.334 L 29.0776 68.9078 L 28.8279 69.561 L 28.5326 70.3179 L 28.2095 71.1406 L 27.8787 71.9598 L 27.5145 72.8104 L 27.1299 73.6676 L 26.7439 74.4933 L 26.3527 75.3159 L 25.9562 76.1499 L 25.5867 76.9423 L 25.2317 77.729 L 24.8956 78.5063 L 24.5821 79.2791 L 24.2908 80.0348 L 24.0182 80.7666 L 23.7662 81.4547 L 23.5352 82.1153 L 23.3378 82.716 L 23.1695 83.2523 L 23.0185 83.7371 L 22.8858 84.1637 L 22.773 84.5167 L 22.6699 84.811 L 22.5789 85.0399 L 22.5033 85.1964 L 22.4407 85.2895 L 22.374 85.4206 L 22.3186 85.4586 L 22.2194 85.558 L 22.0945 85.6221 L 22.057 85.6067 L 21.9256 85.628 L 21.7941 85.6072 L 21.6756 85.5468 L 21.5813 85.4527 L 21.5207 85.3343 L 21.5263 85.2743 L 21.5067 85.1512 L 21.5321 85.0117 L 21.5857 84.7966 L 21.6666 84.5424 L 21.6774 84.4733 L 21.709 84.411 L 21.7583 84.3615 L 21.8206 84.3296 L 21.8896 84.3186 L 21.9587 84.3294 L 22.0211 84.3611 L 22.0707 84.4104 L 22.1026 84.4726 L 22.1138 84.5417 L 22.1947 84.7956 L 22.2556 85.0105 L 22.3038 85.1499 L 22.2839 85.0269 L 22.3295 85.0701 L 22.2687 84.9516 L 22.1744 84.8578 L 22.0557 84.7976 L 21.9242 84.777 L 21.7928 84.7979 L 21.816 84.7694 L 21.6911 84.8333 L 21.5922 84.9327 L 21.6133 84.8698 L 21.5468 85.0008 L 21.5725 84.8957 L 21.617 84.7291 L 21.6868 84.4934 L 21.7803 84.196 L 21.8913 83.8424 L 22.0246 83.416 L 22.1763 82.9314 L 22.3448 82.3952 L 22.5422 81.7944 L 22.7732 81.1338 L 23.0251 80.4458 L 23.2977 79.714 L 23.589 78.9583 L 23.9025 78.1855 L 24.2386 77.4082 L 24.5936 76.6215 L 24.9631 75.829 L 25.3596 74.995 L 25.7508 74.1725 L 26.1368 73.3468 L 26.5214 72.4896 L 26.8856 71.639 L 27.2164 70.8197 L 27.5395 69.997 L 27.8348 69.2401 L 28.0845 68.587 L 28.2942 68.0132 L 28.4689 67.5099 L 28.6052 67.0967 L 28.711 66.761 L 28.7921 66.5077 L 28.8537 66.3183 L 28.8998 66.1862 L 28.935 66.1077 L 29.0089 65.9623 L 29.124 65.8466 L 29.1551 65.8173 L 29.3004 65.743 L 29.4616 65.7173 L 29.4919 65.7141 L 29.52 65.7168 L 29.5447 65.7193 L 29.5677 65.7251 L 29.7273 65.7501 L 29.7389 65.7646 L 29.8799 65.8362 L 29.992 65.9476 L 30.0641 66.0883 L 30.0535 66.1038 L 30.078 66.2549 L 30.0587 66.2693 L 30.0364 66.2857 L 30.011 66.3061 L 29.9806 66.333 L 29.9448 66.3658 L 29.9122 66.4064 L 29.8998 66.4562 L 29.9157 66.5032 L 29.8995 66.6058 L 29.9391 66.661 Z" style='fill:rgba(255,255,255,1); stroke:none' />

<path d="M 29.6295 67.2154 L 29.6295 67.2154 L 29.512 67.2345 L 29.3944 67.2159 L 29.2884 67.1619 L 29.2041 67.0777 L 29.1499 66.9718 L 29.1312 66.8543 L 29.1496 66.7367 L 29.2035 66.6307 L 29.2873 66.5464 L 29.3933 66.4922 L 29.4293 66.5264 L 29.4786 66.5363 L 29.5757 66.5208 L 29.6497 66.5023 L 29.7541 66.4661 L 29.8895 66.4262 L 30.0637 66.3887 L 30.281 66.3555 L 30.54 66.3227 L 30.8408 66.2892 L 31.1882 66.2554 L 31.5673 66.2202 L 31.984 66.1814 L 32.4417 66.1413 L 32.9448 66.0958 L 33.5126 66.0422 L 34.1411 65.9814 L 34.8043 65.922 L 35.5408 65.861 L 36.3491 65.7953 L 37.2043 65.7242 L 38.0941 65.6495 L 39.0303 65.5715 L 39.9915 65.4953 L 41.0279 65.4155 L 42.1367 65.3274 L 43.2892 65.232 L 44.4723 65.1295 L 45.6944 65.0196 L 46.9114 64.9079 L 48.1687 64.7936 L 49.4531 64.6846 L 50.7363 64.5872 L 52.0376 64.5 L 53.3648 64.4227 L 54.6709 64.362 L 56.0076 64.3144 L 57.3568 64.2776 L 58.7013 64.2537 L 60.0753 64.2383 L 61.4943 64.2283 L 62.8943 64.2233 L 64.3311 64.2161 L 65.7857 64.1994 L 67.2234 64.1726 L 68.6706 64.1299 L 70.1495 64.0702 L 71.6021 63.9925 L 73.0748 63.8942 L 74.537 63.7854 L 75.9504 63.676 L 77.3223 63.5725 L 78.6529 63.4789 L 79.8847 63.4032 L 81.0537 63.3427 L 82.1406 63.293 L 83.1607 63.2506 L 84.1563 63.2158 L 85.1383 63.1879 L 86.0563 63.1643 L 86.9255 63.1417 L 87.7418 63.1224 L 88.5214 63.1055 L 89.2996 63.0893 L 90.0857 63.0747 L 90.8427 63.0631 L 91.5868 63.0539 L 92.2955 63.0433 L 92.9384 63.0336 L 93.5256 63.0285 L 94.0715 63.0268 L 94.5628 63.0271 L 95.0139 63.0326 L 95.4164 63.0498 L 95.7649 63.0849 L 96.0596 63.136 L 96.2049 63.1588 L 96.4367 63.2134 L 96.6024 63.2681 L 96.711 63.3267 L 96.8221 63.3831 L 96.8625 63.4508 L 96.9423 63.5302 L 96.9937 63.6305 L 96.9484 63.6949 L 96.9635 63.7885 L 96.9487 63.8821 L 96.8513 63.9132 L 96.8192 63.9762 L 96.7693 64.0262 L 96.7065 64.0584 L 96.6367 64.0697 L 96.567 64.0587 L 96.5041 64.0267 L 96.4541 63.9767 L 96.4219 63.9139 L 96.4108 63.8442 L 96.4218 63.7745 L 96.3722 63.6959 L 96.3575 63.7895 L 96.3724 63.8831 L 96.309 63.8541 L 96.3603 63.9544 L 96.4402 64.0341 L 96.3551 64.0282 L 96.4661 64.0847 L 96.3406 64.0786 L 96.1607 64.068 L 95.9159 64.0532 L 96.0611 64.0762 L 95.7665 64.0634 L 95.418 64.0604 L 95.0156 64.0653 L 94.5645 64.0703 L 94.0732 64.0723 L 93.5273 64.0735 L 92.9401 64.0777 L 92.2972 64.0871 L 91.5885 64.0976 L 90.8444 64.1069 L 90.0874 64.1186 L 89.3013 64.1331 L 88.5231 64.1493 L 87.7434 64.1662 L 86.9272 64.1855 L 86.058 64.2081 L 85.1399 64.2317 L 84.158 64.2596 L 83.1623 64.2944 L 82.1423 64.3368 L 81.0553 64.3865 L 79.8864 64.4471 L 78.6545 64.5227 L 77.324 64.6164 L 75.9521 64.7198 L 74.5387 64.8292 L 73.0765 64.938 L 71.6038 65.0363 L 70.1512 65.114 L 68.6723 65.1737 L 67.2251 65.2164 L 65.7874 65.2433 L 64.3327 65.2599 L 62.896 65.2671 L 61.496 65.2721 L 60.0769 65.2821 L 58.703 65.2976 L 57.3584 65.3215 L 56.0093 65.3582 L 54.6725 65.4058 L 53.3664 65.4665 L 52.0392 65.5439 L 50.7379 65.631 L 49.4547 65.7285 L 48.1703 65.8374 L 46.9131 65.9517 L 45.696 66.0634 L 44.4739 66.1734 L 43.2909 66.2758 L 42.1384 66.3712 L 41.0295 66.4593 L 39.9932 66.5391 L 39.0319 66.6153 L 38.0957 66.6933 L 37.2059 66.768 L 36.3508 66.8391 L 35.5424 66.9048 L 34.806 66.9657 L 34.1427 67.0252 L 33.5143 67.0863 L 32.9464 67.1408 L 32.4433 67.1868 L 31.9857 67.2244 L 31.5689 67.2529 L 31.1898 67.2662 L 30.8424 67.2681 L 30.5415 67.2633 L 30.2825 67.2526 L 30.0651 67.2347 L 29.8908 67.2101 L 29.7552 67.1788 L 29.6507 67.1524 L 29.5767 67.1499 L 29.6738 67.1341 L 29.6365 67.161 L 29.6295 67.2154 Z" style='fill:rgba(255,255,255,1); stroke:none' />

<path d="M 96.6646 63.3838 L 96.6646 63.3838 L 96.7196 63.491 L 96.7388 63.6099 L 96.72 63.7288 L 96.6654 63.8362 L 96.5802 63.9216 L 96.473 63.9765 L 96.3541 63.9958 L 96.2352 63.977 L 96.1279 63.9223 L 96.0426 63.8372 L 96.0798 63.7952 L 96.1532 63.8685 L 96.1488 63.8411 L 96.114 63.8324 L 96.0627 63.8367 L 95.9835 63.7576 L 95.9256 63.7511 L 95.8772 63.7407 L 95.8331 63.7273 L 95.7924 63.7079 L 95.7528 63.6871 L 95.7206 63.6614 L 95.6486 63.5206 L 95.6253 63.4935 L 95.6125 63.4734 L 95.6024 63.4535 L 95.5956 63.4324 L 95.5699 63.2711 L 95.5951 63.1098 L 95.6691 62.9643 L 95.7842 62.8485 L 95.9296 62.7742 L 95.9308 62.7742 L 96.092 62.7485 L 96.2533 62.7738 L 96.3989 62.8477 L 96.5146 62.9627 L 96.5891 63.108 L 96.6198 63.1802 L 96.7091 63.3643 L 96.8627 63.6694 L 97.0684 64.103 L 97.3185 64.6614 L 97.6281 65.3644 L 97.9859 66.1539 L 98.3881 67.0033 L 98.8592 67.9422 L 99.4118 68.9862 L 99.3372 68.8409 L 99.9105 69.9172 L 99.985 70.0625 L 100.568 71.1581 L 100.493 71.0128 L 101.062 72.0592 L 101.61 73.0539 L 102.117 73.9731 L 102.61 74.8581 L 103.053 75.652 L 103.468 76.4086 L 103.543 76.5539 L 103.931 77.2862 L 104.29 77.9895 L 104.619 78.64 L 104.937 79.2554 L 104.863 79.1115 L 105.145 79.6457 L 105.407 80.1173 L 105.652 80.5422 L 105.865 80.9048 L 106.041 81.211 L 106.191 81.4792 L 106.306 81.7013 L 106.378 81.8968 L 106.42 82.0899 L 106.452 82.1518 L 106.463 82.2206 L 106.452 82.2894 L 106.421 82.3515 L 106.372 82.4008 L 106.31 82.4326 L 106.241 82.4437 L 106.172 82.4328 L 106.11 82.4012 L 106.061 82.352 L 105.885 82.2564 L 105.72 82.1281 L 105.547 81.9485 L 105.354 81.7118 L 105.14 81.4328 L 104.893 81.0953 L 104.617 80.6933 L 104.328 80.241 L 104.028 79.7201 L 103.954 79.5762 L 103.628 78.9639 L 103.296 78.314 L 102.938 77.6105 L 102.551 76.878 L 102.625 77.0233 L 102.21 76.2666 L 101.767 75.4727 L 101.274 74.5877 L 100.766 73.6685 L 100.219 72.6738 L 99.6498 71.6274 L 99.5755 71.4821 L 98.993 70.3865 L 99.0673 70.5318 L 98.494 69.4555 L 98.4197 69.3102 L 97.8672 68.2662 L 97.3961 67.3274 L 96.9939 66.4779 L 96.6361 65.6884 L 96.3264 64.9854 L 96.0764 64.427 L 95.8706 63.9934 L 95.7171 63.6884 L 95.6278 63.5042 L 95.597 63.4321 L 95.6713 63.5774 L 95.787 63.6928 L 95.9324 63.7669 L 96.0937 63.7924 L 96.2549 63.7663 L 96.2538 63.7668 L 96.3992 63.6923 L 96.5147 63.5765 L 96.5888 63.4308 L 96.6143 63.2695 L 96.5882 63.1082 L 96.5957 63.1291 L 96.6042 63.1495 L 96.6076 63.1727 L 96.6096 63.2067 L 96.5374 63.066 L 96.5432 63.111 L 96.5516 63.1545 L 96.5577 63.1991 L 96.562 63.2416 L 96.5615 63.2876 L 96.561 63.3367 L 96.4818 63.258 L 96.4933 63.3085 L 96.5135 63.3375 L 96.5414 63.3324 L 96.6148 63.4053 L 96.6646 63.3838 Z" style='fill:rgba(255,255,255,1); stroke:none' />

<path d="M 22.4733 87.3752 L 22.4733 87.3752 L 22.3565 87.3941 L 22.2398 87.3757 L 22.1344 87.322 L 22.0507 87.2384 L 21.9969 87.1332 L 21.9783 87.0164 L 21.9966 86.8997 L 22.0501 86.7944 L 22.1334 86.7106 L 22.2386 86.6568 L 22.4033 86.629 L 22.5731 86.5771 L 22.757 86.4997 L 22.9593 86.4027 L 23.1782 86.3001 L 23.4008 86.2054 L 23.6216 86.1237 L 23.8393 86.0539 L 24.0557 85.9902 L 24.2658 85.9363 L 24.4219 85.9114 L 24.6359 85.8686 L 24.8507 85.8371 L 25.0657 85.8153 L 25.2831 85.7991 L 25.5006 85.7857 L 25.7172 85.7746 L 25.9431 85.7662 L 26.1719 85.7589 L 26.4063 85.754 L 26.6492 85.7482 L 26.9083 85.7376 L 27.1844 85.7235 L 27.4847 85.7087 L 27.8098 85.6961 L 28.1647 85.6863 L 28.5631 85.6749 L 29.005 85.6602 L 29.4816 85.6414 L 30.0113 85.6186 L 30.5788 85.5941 L 31.1845 85.5651 L 31.8263 85.5306 L 32.502 85.4926 L 33.1963 85.4555 L 33.9398 85.4173 L 34.7349 85.3758 L 35.5716 85.3346 L 36.4388 85.299 L 37.3339 85.2693 L 38.2298 85.2443 L 39.1599 85.2215 L 40.1178 85.2034 L 41.0867 85.191 L 42.0688 85.1832 L 43.0556 85.1774 L 44.0084 85.1738 L 44.9562 85.1693 L 45.9001 85.1597 L 46.8436 85.1434 L 47.821 85.1141 L 48.8706 85.0636 L 49.9908 84.9933 L 51.2172 84.9066 L 52.4956 84.8117 L 53.7902 84.716 L 55.1081 84.6245 L 56.4473 84.5402 L 57.8281 84.4618 L 59.2536 84.3888 L 60.6734 84.3216 L 62.1321 84.2577 L 63.6166 84.1948 L 65.1064 84.132 L 66.6202 84.0702 L 68.1597 84.0108 L 69.6682 83.954 L 71.1865 83.897 L 72.6945 83.8437 L 74.1646 83.7989 L 75.6156 83.7599 L 77.0608 83.7242 L 78.4488 83.6869 L 79.8237 83.6435 L 81.1874 83.597 L 82.5386 83.5546 L 83.9015 83.523 L 85.2923 83.5031 L 86.6692 83.4911 L 88.0695 83.4832 L 89.4662 83.4755 L 90.8317 83.4687 L 92.1784 83.4613 L 93.5032 83.452 L 94.7467 83.4363 L 95.9429 83.4141 L 97.0948 83.3892 L 98.2063 83.3623 L 99.2669 83.3361 L 100.3 83.3138 L 101.271 83.2929 L 102.194 83.2724 L 103.043 83.2571 L 103.8 83.2465 L 104.462 83.2349 L 105.031 83.2209 L 105.5 83.2065 L 105.89 83.1943 L 106.211 83.184 L 106.47 83.1741 L 106.666 83.1681 L 106.8 83.1693 L 106.661 83.1914 L 106.744 83.197 L 106.626 83.2577 L 106.665 83.2613 L 106.577 83.3495 L 106.521 83.4604 L 106.502 83.5834 L 106.521 83.7063 L 106.578 83.8171 L 106.666 83.9051 L 106.656 83.8424 L 106.756 83.8934 L 106.67 83.7883 L 106.531 83.6461 L 106.467 83.6138 L 106.417 83.5635 L 106.385 83.5002 L 106.374 83.43 L 106.385 83.3597 L 106.417 83.2964 L 106.467 83.246 L 106.53 83.2136 L 106.6 83.2024 L 106.671 83.2134 L 106.856 83.2136 L 106.94 83.2563 L 107.077 83.2612 L 107.133 83.2607 L 107.221 83.3484 L 107.278 83.4592 L 107.298 83.5821 L 107.278 83.7051 L 107.222 83.8161 L 107.134 83.9043 L 107.128 83.9465 L 107.009 84.0073 L 106.94 84.0459 L 106.801 84.0684 L 106.667 84.1088 L 106.472 84.1527 L 106.213 84.1943 L 105.891 84.2265 L 105.501 84.2493 L 105.032 84.2665 L 104.463 84.2801 L 103.801 84.2908 L 103.044 84.301 L 102.195 84.3162 L 101.273 84.3367 L 100.301 84.3576 L 99.2686 84.3799 L 98.208 84.4061 L 97.0965 84.4331 L 95.9445 84.4579 L 94.7484 84.4802 L 93.5049 84.4958 L 92.1801 84.5051 L 90.8333 84.5125 L 89.4678 84.5194 L 88.0712 84.5271 L 86.6709 84.535 L 85.294 84.5469 L 83.9032 84.5668 L 82.5403 84.5984 L 81.189 84.6409 L 79.8254 84.6873 L 78.4505 84.7307 L 77.0625 84.7681 L 75.6173 84.8038 L 74.1663 84.8427 L 72.6962 84.8875 L 71.1881 84.9408 L 69.6699 84.9978 L 68.1614 85.0547 L 66.6218 85.114 L 65.1081 85.1759 L 63.6182 85.2386 L 62.1337 85.3016 L 60.6751 85.3654 L 59.2553 85.4326 L 57.8298 85.5057 L 56.449 85.584 L 55.1098 85.6683 L 53.7919 85.7598 L 52.4973 85.8555 L 51.2189 85.9505 L 49.9924 86.0371 L 48.8722 86.1074 L 47.8227 86.1579 L 46.8453 86.1872 L 45.9018 86.2035 L 44.9578 86.2131 L 44.0101 86.2176 L 43.0572 86.2212 L 42.0705 86.2271 L 41.0884 86.2348 L 40.1195 86.2472 L 39.1616 86.2653 L 38.2314 86.2882 L 37.3356 86.3131 L 36.4404 86.3428 L 35.5733 86.3785 L 34.7366 86.4196 L 33.9415 86.4611 L 33.1979 86.4993 L 32.5036 86.5365 L 31.828 86.5744 L 31.1862 86.6089 L 30.5804 86.6379 L 30.013 86.6624 L 29.4832 86.6852 L 29.0067 86.704 L 28.5648 86.7187 L 28.1663 86.7301 L 27.8114 86.7399 L 27.4863 86.7525 L 27.1861 86.7673 L 26.91 86.7815 L 26.6509 86.792 L 26.4079 86.7978 L 26.1736 86.8027 L 25.9448 86.81 L 25.7188 86.8185 L 25.5022 86.83 L 25.2848 86.8443 L 25.0674 86.8609 L 24.8524 86.88 L 24.6375 86.9009 L 24.4235 86.9221 L 24.5795 86.8968 L 24.3597 86.9208 L 24.1314 86.9482 L 23.9 86.9761 L 23.663 87.0083 L 23.421 87.0433 L 23.1803 87.0794 L 22.9595 87.1197 L 22.7697 87.1789 L 22.6114 87.2659 L 22.4733 87.3752 Z" style='fill:rgba(255,255,255,1); stroke:none' />

<path d="M 18.6643 91.8648 L 18.6643 91.8648 L 18.6455 91.9839 L 18.5907 92.0914 L 18.5055 92.1768 L 18.3982 92.2319 L 18.2791 92.2512 L 18.16 92.2323 L 18.0526 92.1776 L 17.9672 92.0923 L 17.9123 91.985 L 17.8933 91.866 L 17.948 91.8273 L 17.968 91.7872 L 17.9553 91.7527 L 17.9214 91.7252 L 17.8864 91.7049 L 17.8579 91.6886 L 17.8787 91.8195 L 17.8513 91.8131 L 17.9152 91.938 L 18.0146 92.0372 L 18.1395 92.1008 L 18.1099 92.1135 L 18.255 92.1364 L 18.4002 92.1129 L 18.3566 92.1421 L 18.4927 92.0723 L 18.4365 92.1475 L 18.5483 92.0354 L 18.4776 92.1774 L 18.551 92.0332 L 18.4615 92.2285 L 18.3547 92.468 L 18.2332 92.7502 L 18.0962 93.088 L 17.9511 93.4677 L 17.7811 93.9102 L 17.5759 94.4221 L 17.3345 95.0043 L 17.0562 95.6563 L 16.7291 96.4041 L 16.3642 97.2055 L 15.9435 98.0849 L 15.8694 98.2305 L 15.3943 99.1923 L 14.8702 100.222 L 14.3192 101.304 L 13.7499 102.433 L 13.2045 103.499 L 12.6503 104.543 L 12.11 105.53 L 11.5828 106.464 L 11.0592 107.368 L 10.5592 108.233 L 10.14 108.987 L 9.77496 109.681 L 9.84676 109.54 L 9.52045 110.194 L 9.26582 110.765 L 9.08158 111.244 L 8.95206 111.666 L 8.86911 112.02 L 8.88856 111.896 L 8.84013 112.193 L 8.80509 112.414 L 8.78981 112.32 L 8.76442 112.519 L 8.77553 112.587 L 8.76469 112.656 L 8.73313 112.718 L 8.68397 112.767 L 8.6221 112.799 L 8.55346 112.81 L 8.48481 112.799 L 8.42287 112.768 L 8.37362 112.718 L 8.34197 112.657 L 8.20892 112.509 L 8.19388 112.415 L 8.11492 112.194 L 8.09156 111.898 L 8.11085 111.775 L 8.14308 111.405 L 8.22845 110.969 L 8.37216 110.476 L 8.58976 109.894 L 8.88466 109.229 L 8.95626 109.089 L 9.30316 108.381 L 9.71439 107.621 L 10.2131 106.756 L 10.7373 105.852 L 11.2649 104.918 L 11.8053 103.931 L 12.3594 102.887 L 12.9049 101.821 L 13.4741 100.693 L 14.0252 99.6099 L 14.5493 98.5804 L 15.0243 97.6187 L 14.9504 97.7641 L 15.3711 96.8847 L 15.7361 96.0832 L 16.0631 95.3355 L 16.3414 94.6834 L 16.5828 94.1012 L 16.7881 93.5894 L 16.9581 93.1469 L 17.1031 92.7671 L 17.2396 92.4292 L 17.3604 92.1468 L 17.4688 91.9078 L 17.5676 91.7155 L 17.6408 91.5715 L 17.7296 91.4426 L 17.841 91.3306 L 17.9166 91.2819 L 18.0528 91.2123 L 18.1084 91.2197 L 18.2535 91.1966 L 18.3987 91.2194 L 18.4152 91.2475 L 18.5404 91.311 L 18.6397 91.4098 L 18.7038 91.5347 L 18.6845 91.5563 L 18.7057 91.6872 L 18.674 91.7037 L 18.6365 91.7241 L 18.6021 91.7517 L 18.5894 91.7862 L 18.6095 91.8263 L 18.6643 91.8648 Z" style='fill:rgba(255,255,255,1); stroke:none' />

<path d="M 18.3989 93.2185 L 18.3989 93.2185 L 18.5159 93.1999 L 18.633 93.2182 L 18.7386 93.2718 L 18.8226 93.3553 L 18.8767 93.4608 L 18.8956 93.5778 L 18.8771 93.6948 L 18.8234 93.8005 L 18.7396 93.8845 L 18.6341 93.9386 L 18.5701 93.9133 L 18.5124 93.9109 L 18.4641 93.9316 L 18.3635 93.9479 L 18.3203 93.9833 L 18.2905 94.0202 L 18.2857 94.0521 L 18.4162 94.0309 L 18.5339 93.9706 L 18.6273 93.8769 L 18.6874 93.759 L 18.708 93.6285 L 18.6868 93.498 L 18.6265 93.3803 L 18.5329 93.2872 L 18.415 93.2273 L 18.2844 93.2069 L 18.3207 93.1794 L 18.4055 93.1479 L 18.2602 93.171 L 18.3799 93.1296 L 18.529 93.0797 L 18.6992 93.0262 L 18.8987 92.9753 L 19.1278 92.9295 L 19.2892 92.9038 L 19.5518 92.8624 L 19.8536 92.8211 L 20.2016 92.7799 L 20.594 92.7392 L 21.041 92.6942 L 21.544 92.6438 L 22.097 92.5906 L 22.6954 92.5397 L 23.3409 92.4899 L 24.0218 92.4346 L 24.7742 92.3699 L 25.593 92.3005 L 26.4456 92.2278 L 27.3093 92.1523 L 28.1963 92.0724 L 29.1224 91.9919 L 30.106 91.9105 L 31.1131 91.8345 L 32.1223 91.7692 L 33.1565 91.7126 L 34.2333 91.6605 L 35.3245 91.613 L 36.469 91.5651 L 37.654 91.507 L 38.9109 91.4264 L 40.2511 91.3207 L 41.6628 91.2004 L 43.0713 91.0782 L 44.5142 90.9523 L 45.9813 90.8282 L 47.4442 90.7092 L 48.9229 90.5918 L 50.4443 90.4764 L 51.947 90.3713 L 53.4792 90.2711 L 55.0451 90.1759 L 56.6071 90.0894 L 58.1324 90.0144 L 59.661 89.9476 L 61.1487 89.8884 L 62.6476 89.8322 L 64.1602 89.7777 L 65.6587 89.7241 L 67.1257 89.6734 L 68.6224 89.6236 L 70.1329 89.5726 L 71.7006 89.5224 L 73.259 89.479 L 74.7902 89.4427 L 76.292 89.4161 L 77.8198 89.398 L 79.3446 89.3894 L 80.8919 89.3861 L 82.3809 89.3858 L 83.8109 89.3936 L 85.2215 89.4217 L 86.6258 89.477 L 87.9656 89.5511 L 89.2933 89.6386 L 90.6096 89.7332 L 91.9002 89.831 L 93.1721 89.9329 L 94.4292 90.038 L 95.6166 90.1418 L 96.7622 90.2479 L 97.847 90.3529 L 98.8865 90.4568 L 99.8951 90.559 L 100.868 90.6592 L 101.756 90.7549 L 102.576 90.8472 L 103.323 90.9291 L 103.999 90.998 L 104.608 91.0563 L 105.143 91.1036 L 105.581 91.1407 L 105.929 91.173 L 106.195 91.2019 L 106.378 91.2272 L 106.489 91.2521 L 106.536 91.2805 L 106.413 91.3001 L 106.302 91.3568 L 106.215 91.445 L 106.158 91.556 L 106.139 91.679 L 106.159 91.802 L 106.215 91.9128 L 106.303 92.0009 L 106.414 92.0574 L 106.4 92.0163 L 106.301 91.9451 L 106.146 91.8405 L 106.083 91.8083 L 106.032 91.7581 L 106 91.6949 L 105.989 91.6249 L 106 91.5548 L 106.032 91.4916 L 106.082 91.4413 L 106.145 91.409 L 106.215 91.3978 L 106.285 91.4088 L 106.487 91.3698 L 106.621 91.3324 L 106.659 91.2998 L 106.77 91.3562 L 106.858 91.4439 L 106.915 91.5548 L 106.935 91.6777 L 106.916 91.8007 L 106.859 91.9118 L 106.771 92.0001 L 106.66 92.0569 L 106.537 92.0768 L 106.49 92.1045 L 106.38 92.1259 L 106.197 92.1425 L 105.931 92.1515 L 105.583 92.1511 L 105.145 92.1359 L 104.609 92.0992 L 104.001 92.0436 L 103.324 91.9742 L 102.577 91.8914 L 101.758 91.7987 L 100.869 91.7029 L 99.8968 91.6028 L 98.8882 91.5006 L 97.8486 91.3968 L 96.7639 91.2917 L 95.6182 91.1856 L 94.4309 91.0818 L 93.1738 90.9767 L 91.9019 90.8749 L 90.6112 90.777 L 89.295 90.6824 L 87.9673 90.5949 L 86.6275 90.5208 L 85.2232 90.4656 L 83.8125 90.4374 L 82.3825 90.4296 L 80.8935 90.4299 L 79.3462 90.4332 L 77.8215 90.4418 L 76.2937 90.4599 L 74.7918 90.4865 L 73.2606 90.5228 L 71.7023 90.5662 L 70.1346 90.6164 L 68.6241 90.6674 L 67.1274 90.7172 L 65.6603 90.7679 L 64.1619 90.8216 L 62.6493 90.8761 L 61.1504 90.9323 L 59.6627 90.9914 L 58.134 91.0582 L 56.6087 91.1333 L 55.0468 91.2197 L 53.4809 91.3149 L 51.9486 91.4151 L 50.446 91.5202 L 48.9245 91.6356 L 47.4459 91.753 L 45.983 91.872 L 44.5158 91.9961 L 43.0729 92.122 L 41.6645 92.2443 L 40.2527 92.3645 L 38.9126 92.4702 L 37.6557 92.5508 L 36.4707 92.6089 L 35.3261 92.6568 L 34.235 92.7043 L 33.1582 92.7564 L 32.1239 92.813 L 31.1148 92.8784 L 30.1077 92.9543 L 29.1241 93.0358 L 28.1979 93.1162 L 27.311 93.1961 L 26.4472 93.2716 L 25.5947 93.3443 L 24.7759 93.4138 L 24.0235 93.4784 L 23.3426 93.5337 L 22.6971 93.5835 L 22.0987 93.6344 L 21.5457 93.6876 L 21.0427 93.738 L 20.5956 93.7829 L 20.2033 93.8237 L 19.8553 93.8654 L 19.5535 93.9075 L 19.2909 93.9494 L 19.4524 93.9232 L 19.2225 93.9665 L 19.0197 94.0074 L 18.8427 94.0403 L 18.6838 94.0602 L 18.5523 94.0653 L 18.407 94.0888 L 18.3222 94.0763 L 18.2857 94.0521 L 18.1552 94.0314 L 18.0374 93.9714 L 17.9438 93.878 L 17.8836 93.7603 L 17.8628 93.6298 L 17.8832 93.4993 L 17.9431 93.3815 L 18.0362 93.2879 L 18.1539 93.2277 L 18.2844 93.2069 L 18.2893 93.2375 L 18.3191 93.2711 L 18.3624 93.2963 L 18.2618 93.3124 L 18.3163 93.3105 L 18.3624 93.2771 L 18.3989 93.2185 Z" style='fill:rgba(255,255,255,1); stroke:none' />

<path d="M 107.308 91.8495 L 107.308 91.8495 L 107.415 91.9038 L 107.5 91.9883 L 107.554 92.095 L 107.573 92.2133 L 107.555 92.3318 L 107.5 92.4387 L 107.416 92.5237 L 107.309 92.5784 L 107.19 92.5976 L 107.072 92.5788 L 106.976 92.4872 L 106.863 92.4171 L 106.776 92.3727 L 106.655 92.3233 L 106.528 92.2791 L 106.412 92.2332 L 106.31 92.1885 L 106.225 92.1452 L 106.125 92.046 L 106.048 92.0009 L 105.986 91.9616 L 105.942 91.9279 L 105.87 91.7872 L 105.844 91.7549 L 105.818 91.5954 L 105.808 91.5625 L 105.806 91.5302 L 105.832 91.3688 L 105.836 91.3412 L 105.91 91.1956 L 106.026 91.0799 L 106.045 91.0685 L 106.19 90.9941 L 106.351 90.9684 L 106.513 90.9937 L 106.555 91.0134 L 106.701 91.0872 L 106.817 91.2023 L 106.886 91.2821 L 106.983 91.4344 L 107.102 91.6524 L 107.177 91.7977 L 107.323 92.0887 L 107.502 92.4559 L 107.715 92.8893 L 107.968 93.3987 L 108.259 93.9728 L 108.567 94.5719 L 108.493 94.4266 L 108.844 95.0833 L 109.241 95.787 L 109.662 96.5064 L 110.099 97.2256 L 110.558 97.9634 L 111.025 98.7199 L 111.498 99.5004 L 111.957 100.282 L 112.392 101.05 L 112.823 101.831 L 113.256 102.634 L 113.33 102.78 L 113.733 103.562 L 114.134 104.358 L 114.526 105.156 L 114.89 105.924 L 115.233 106.658 L 115.559 107.363 L 115.858 108.024 L 116.145 108.68 L 116.407 109.301 L 116.637 109.851 L 116.846 110.346 L 117.047 110.817 L 117.227 111.24 L 117.393 111.629 L 117.542 111.977 L 117.675 112.278 L 117.607 112.147 L 117.724 112.408 L 117.819 112.616 L 117.887 112.76 L 117.799 112.672 L 117.852 112.768 L 117.752 112.717 L 117.804 112.797 L 117.851 112.885 L 117.913 112.917 L 117.963 112.966 L 117.995 113.029 L 118.006 113.098 L 117.995 113.167 L 117.963 113.229 L 117.914 113.279 L 117.852 113.311 L 117.782 113.322 L 117.713 113.311 L 117.617 113.376 L 117.529 113.405 L 117.429 113.354 L 117.331 113.317 L 117.243 113.229 L 117.131 113.117 L 116.999 112.937 L 116.848 112.701 L 116.781 112.57 L 116.612 112.281 L 116.432 111.943 L 116.245 111.561 L 116.056 111.141 L 115.852 110.671 L 115.644 110.175 L 115.415 109.625 L 115.153 109.004 L 114.866 108.348 L 114.567 107.687 L 114.241 106.982 L 113.898 106.248 L 113.534 105.48 L 113.142 104.683 L 112.741 103.886 L 112.338 103.104 L 112.412 103.249 L 111.98 102.445 L 111.549 101.664 L 111.114 100.897 L 110.655 100.115 L 110.182 99.3345 L 109.715 98.578 L 109.256 97.8402 L 108.819 97.121 L 108.397 96.4016 L 108.001 95.6979 L 107.65 95.0412 L 107.575 94.8959 L 107.267 94.2968 L 106.976 93.7227 L 106.723 93.2133 L 106.51 92.78 L 106.331 92.4127 L 106.185 92.1217 L 106.259 92.267 L 106.14 92.049 L 106.043 91.8967 L 105.974 91.8168 L 106.089 91.9323 L 106.235 92.0064 L 106.192 91.987 L 106.353 92.0124 L 106.514 91.9863 L 106.659 91.9118 L 106.641 91.9238 L 106.756 91.808 L 106.83 91.6623 L 106.826 91.69 L 106.852 91.5285 L 106.851 91.5608 L 106.851 91.5937 L 106.826 91.4342 L 106.831 91.4733 L 106.759 91.3326 L 106.777 91.3854 L 106.808 91.4473 L 106.85 91.5178 L 106.75 91.4189 L 106.807 91.5027 L 106.873 91.5969 L 106.946 91.7011 L 107.035 91.7986 L 107.142 91.8671 L 107.055 91.8228 L 107.18 91.855 L 107.308 91.8495 Z" style='fill:rgba(255,255,255,1); stroke:none' />

<path d="M 9.11714 113.915 L 9.11714 113.915 L 9.00011 113.897 L 8.89454 113.843 L 8.81059 113.759 L 8.75665 113.654 L 8.73801 113.537 L 8.75635 113.42 L 8.80999 113.314 L 8.89348 113.23 L 8.99894 113.176 L 9.11592 113.158 L 9.12871 113.202 L 9.1423 113.22 L 9.16244 113.21 L 9.20181 113.179 L 9.27379 113.145 L 9.38018 113.118 L 9.50908 113.104 L 9.66615 113.095 L 9.86443 113.087 L 10.1176 113.076 L 10.4342 113.067 L 10.82 113.064 L 11.2617 113.063 L 11.7664 113.057 L 12.33 113.033 L 12.9431 112.982 L 13.605 112.91 L 14.3255 112.823 L 15.089 112.738 L 15.9108 112.657 L 16.7542 112.591 L 17.6137 112.543 L 18.4961 112.511 L 19.4108 112.492 L 20.3287 112.481 L 21.2768 112.478 L 22.2403 112.478 L 23.2141 112.479 L 24.2453 112.48 L 25.368 112.481 L 26.531 112.483 L 27.741 112.481 L 28.9891 112.465 L 30.2605 112.427 L 31.5605 112.376 L 32.898 112.323 L 34.2349 112.275 L 35.6207 112.231 L 37.0318 112.191 L 38.4532 112.148 L 39.927 112.103 L 41.4776 112.054 L 43.0552 112 L 44.6996 111.939 L 46.364 111.87 L 48.0685 111.791 L 49.824 111.703 L 51.6313 111.608 L 53.4133 111.505 L 55.236 111.388 L 57.0857 111.263 L 58.9261 111.141 L 60.7819 111.019 L 62.6702 110.895 L 64.5287 110.776 L 66.4325 110.669 L 68.3539 110.577 L 70.2648 110.506 L 72.1782 110.457 L 74.08 110.432 L 75.8831 110.425 L 77.659 110.425 L 79.4202 110.432 L 81.1756 110.455 L 82.8718 110.501 L 84.5101 110.565 L 86.1168 110.636 L 87.7764 110.709 L 89.4308 110.785 L 91.0582 110.868 L 92.6293 110.957 L 94.1422 111.053 L 95.6054 111.158 L 97.0758 111.277 L 98.5205 111.399 L 99.9183 111.521 L 101.298 111.646 L 102.679 111.779 L 103.999 111.919 L 105.273 112.067 L 106.46 112.204 L 107.567 112.326 L 108.631 112.439 L 109.652 112.545 L 110.586 112.636 L 111.454 112.718 L 112.257 112.795 L 113.007 112.87 L 113.725 112.94 L 114.416 113.01 L 115.052 113.081 L 115.641 113.151 L 116.181 113.212 L 116.673 113.268 L 117.112 113.337 L 117.5 113.436 L 117.594 113.451 L 117.924 113.578 L 117.988 113.61 L 118.038 113.66 L 118.07 113.723 L 118.082 113.793 L 118.071 113.863 L 118.038 113.927 L 117.988 113.977 L 117.925 114.009 L 117.855 114.021 L 117.785 114.009 L 117.408 114.026 L 117.501 114.041 L 117.113 114.056 L 116.674 114.064 L 116.183 114.064 L 115.643 114.05 L 115.053 114.021 L 114.418 113.989 L 113.727 113.951 L 113.009 113.902 L 112.259 113.838 L 111.456 113.763 L 110.588 113.681 L 109.654 113.589 L 108.633 113.483 L 107.569 113.37 L 106.461 113.248 L 105.275 113.111 L 104.001 112.963 L 102.68 112.823 L 101.299 112.69 L 99.92 112.565 L 98.5222 112.443 L 97.0775 112.321 L 95.6071 112.202 L 94.1438 112.097 L 92.631 112.001 L 91.0599 111.912 L 89.4325 111.829 L 87.778 111.753 L 86.1185 111.679 L 84.5118 111.609 L 82.8735 111.545 L 81.1773 111.499 L 79.4218 111.476 L 77.6606 111.469 L 75.8848 111.469 L 74.0816 111.476 L 72.1799 111.501 L 70.2665 111.55 L 68.3556 111.621 L 66.4341 111.713 L 64.5303 111.82 L 62.6718 111.938 L 60.7836 112.063 L 58.9278 112.185 L 57.0873 112.307 L 55.2377 112.432 L 53.415 112.549 L 51.633 112.652 L 49.8257 112.747 L 48.0701 112.834 L 46.3656 112.914 L 44.7012 112.982 L 43.0569 113.044 L 41.4792 113.098 L 39.9286 113.146 L 38.4548 113.192 L 37.0335 113.235 L 35.6224 113.275 L 34.2365 113.319 L 32.8997 113.367 L 31.5622 113.419 L 30.2622 113.471 L 28.9908 113.509 L 27.7427 113.525 L 26.5327 113.527 L 25.3696 113.525 L 24.247 113.524 L 23.2158 113.522 L 22.242 113.522 L 21.2785 113.522 L 20.3304 113.525 L 19.4124 113.535 L 18.4977 113.554 L 17.6154 113.586 L 16.7559 113.635 L 15.9125 113.701 L 15.0907 113.781 L 14.3272 113.867 L 13.6067 113.953 L 12.9448 114.026 L 12.3317 114.077 L 11.7681 114.102 L 11.2634 114.109 L 10.8217 114.107 L 10.4359 114.1 L 10.1192 114.087 L 9.866 114.066 L 9.66766 114.036 L 9.51052 114.001 L 9.38153 113.964 L 9.27504 113.927 L 9.20295 113.891 L 9.16348 113.861 L 9.14331 113.852 L 9.12978 113.871 L 9.11714 113.915 Z" style='fill:rgba(255,255,255,1); stroke:none' />



</svg>