<svg viewBox="17.6545 -4.04808 149.644 129.738" width="777.676086" height="674.230835" xmlns="http://www.w3.org/2000/svg" xmlns:xlink="http://www.w3.org/1999/xlink">

<path d="M 106.058 8.82546 L 106.058 8.82546 L 106.133 8.97098 L 106.159 9.1324 L 106.133 9.29392 L 106.059 9.43976 L 105.943 9.5556 L 105.798 9.63024 L 105.636 9.65638 L 105.475 9.63087 L 105.329 9.55664 L 105.213 9.44102 L 105.098 9.26113 L 105.205 9.36818 L 105.053 9.20268 L 104.861 9.0713 L 104.635 8.97571 L 104.777 9.04807 L 104.538 8.98511 L 104.283 8.93867 L 104.01 8.90059 L 103.713 8.86695 L 103.387 8.83553 L 103.038 8.8045 L 103.261 8.8397 L 102.9 8.80691 L 102.526 8.7697 L 102.138 8.72895 L 101.735 8.68607 L 101.313 8.64128 L 100.873 8.59674 L 100.41 8.55638 L 99.9111 8.52414 L 99.3648 8.50131 L 98.7719 8.48674 L 98.1311 8.47932 L 97.4498 8.47873 L 96.7343 8.48808 L 95.9791 8.51382 L 95.1785 8.56177 L 94.3418 8.63275 L 93.472 8.72217 L 92.5821 8.82323 L 91.6848 8.93029 L 90.7827 9.04152 L 89.8768 9.15535 L 88.9739 9.27025 L 88.0586 9.38722 L 87.1331 9.50467 L 86.2067 9.62066 L 85.2754 9.73628 L 84.3332 9.85414 L 83.3854 9.97673 L 82.4173 10.108 L 81.4269 10.2505 L 80.4149 10.4085 L 79.3668 10.5872 L 79.597 10.5499 L 78.5051 10.7538 L 77.3897 10.9822 L 76.256 11.2368 L 75.1071 11.5178 L 73.9375 11.8252 L 72.7547 12.1568 L 71.5674 12.5081 L 70.3924 12.8729 L 69.2161 13.2569 L 68.0414 13.6614 L 66.8769 14.0869 L 65.7152 14.5384 L 64.5476 15.0218 L 63.3831 15.5359 L 62.213 16.0864 L 61.0487 16.6702 L 61.2562 16.5638 L 60.1096 17.1755 L 58.9738 17.8194 L 57.8462 18.4985 L 56.7408 19.2061 L 55.6454 19.9504 L 54.5571 20.73 L 53.4769 21.5424 L 52.4018 22.395 L 51.333 23.2924 L 50.2853 24.2247 L 49.2471 25.2002 L 48.2219 26.2139 L 48.3868 26.0486 L 47.3784 27.1007 L 46.377 28.2086 L 45.3748 29.3812 L 44.3804 30.6023 L 43.3898 31.8746 L 42.4215 33.1784 L 41.4832 34.5068 L 40.5782 35.8507 L 39.6993 37.2104 L 38.8452 38.5841 L 38.0184 39.9756 L 37.229 41.3801 L 36.4822 42.7998 L 35.7818 44.2278 L 35.8877 44.0198 L 35.2282 45.4574 L 34.6024 46.909 L 34.001 48.3966 L 33.4339 49.9013 L 32.9095 51.4092 L 32.4352 52.9065 L 32.0137 54.3908 L 31.6437 55.8666 L 31.3189 57.3628 L 31.0373 58.8731 L 30.7976 60.3811 L 30.834 60.1507 L 30.6334 61.6593 L 30.4696 63.1721 L 30.3439 64.6693 L 30.2542 66.1657 L 30.1981 67.6576 L 30.1733 69.1352 L 30.181 70.6045 L 30.2293 72.0682 L 30.3287 73.508 L 30.4806 74.9345 L 30.6802 76.3373 L 30.6429 76.107 L 30.8877 77.4737 L 31.1802 78.8067 L 31.5231 80.1054 L 31.9155 81.3549 L 32.3618 82.5715 L 32.8581 83.7546 L 33.3969 84.9045 L 33.975 86.038 L 33.8685 85.8304 L 34.4803 86.9659 L 35.1144 88.1029 L 35.7774 89.26 L 36.4696 90.4342 L 37.1885 91.6154 L 37.9359 92.8024 L 38.7104 93.9846 L 39.5003 95.1336 L 40.3148 96.2515 L 41.1559 97.3304 L 42.0261 98.3599 L 42.934 99.3406 L 43.8816 100.275 L 43.7164 100.11 L 44.6876 100.995 L 45.6925 101.85 L 46.7289 102.683 L 47.7871 103.495 L 48.864 104.291 L 49.9558 105.073 L 51.0512 105.829 L 52.1683 106.566 L 53.3066 107.275 L 54.4612 107.944 L 55.6411 108.571 L 55.4331 108.465 L 56.6434 109.05 L 57.8684 109.583 L 59.1183 110.073 L 60.3901 110.523 L 61.6829 110.934 L 63.0081 111.309 L 64.3681 111.648 L 65.7483 111.948 L 67.165 112.209 L 68.6114 112.428 L 68.381 112.392 L 69.8462 112.568 L 71.3396 112.708 L 72.8645 112.82 L 74.3992 112.909 L 75.9587 112.981 L 77.5342 113.039 L 79.1026 113.086 L 80.6599 113.121 L 82.2291 113.146 L 83.8021 113.162 L 85.3895 113.167 L 86.9712 113.159 L 88.5421 113.126 L 90.1101 113.059 L 91.7 112.952 L 93.2925 112.807 L 94.8812 112.621 L 96.4661 112.388 L 96.2359 112.424 L 97.8277 112.14 L 99.4259 111.804 L 101.039 111.413 L 102.665 110.969 L 104.305 110.471 L 105.947 109.919 L 107.584 109.313 L 109.222 108.65 L 110.86 107.936 L 112.479 107.187 L 114.095 106.403 L 115.709 105.59 L 117.312 104.754 L 117.104 104.86 L 118.701 103.992 L 120.292 103.088 L 121.858 102.158 L 123.415 101.191 L 124.963 100.185 L 126.497 99.1385 L 128.023 98.0426 L 129.539 96.8975 L 131.024 95.7224 L 132.492 94.5052 L 133.938 93.247 L 135.353 91.9559 L 136.743 90.6313 L 138.105 89.2787 L 137.94 89.4439 L 139.25 88.0865 L 140.517 86.7167 L 141.737 85.3435 L 142.893 83.9776 L 143.99 82.6116 L 145.037 81.2361 L 146.035 79.8541 L 146.983 78.4625 L 147.872 77.0671 L 148.701 75.6646 L 149.47 74.2539 L 150.186 72.827 L 150.081 73.0348 L 150.749 71.5936 L 151.373 70.1348 L 151.95 68.6648 L 152.479 67.189 L 152.958 65.7172 L 153.388 64.2414 L 153.762 62.776 L 154.081 61.3105 L 154.344 59.8562 L 154.545 58.4268 L 154.509 58.6571 L 154.652 57.2446 L 154.742 55.8413 L 154.786 54.4577 L 154.792 53.0785 L 154.759 51.7157 L 154.671 50.3819 L 154.517 49.0654 L 154.297 47.7536 L 154.334 47.9839 L 154.059 46.685 L 153.736 45.3791 L 153.376 44.0655 L 152.989 42.7502 L 152.576 41.4314 L 152.139 40.112 L 151.681 38.8152 L 151.197 37.5357 L 150.687 36.2858 L 150.155 35.0725 L 149.596 33.8847 L 149.005 32.7176 L 149.111 32.9252 L 148.497 31.7938 L 147.854 30.688 L 147.189 29.6143 L 146.513 28.5819 L 145.829 27.5868 L 145.134 26.617 L 144.434 25.6696 L 143.725 24.737 L 143.006 23.8178 L 142.273 22.907 L 141.53 22.0082 L 140.779 21.1206 L 140.027 20.2456 L 139.274 19.382 L 138.523 18.5398 L 137.77 17.7226 L 137.011 16.9326 L 136.238 16.1625 L 136.403 16.3274 L 135.619 15.5827 L 134.809 14.857 L 133.973 14.1606 L 133.111 13.5077 L 132.218 12.9026 L 131.294 12.3477 L 130.356 11.8507 L 130.564 11.9565 L 129.604 11.5096 L 128.625 11.1093 L 127.636 10.7544 L 126.638 10.44 L 125.64 10.1615 L 124.654 9.91615 L 123.667 9.69557 L 122.68 9.49578 L 121.699 9.31472 L 120.724 9.14968 L 119.752 8.99995 L 119.982 9.03633 L 119.02 8.90436 L 118.05 8.78987 L 117.073 8.69426 L 116.097 8.61843 L 115.116 8.56181 L 114.125 8.52216 L 113.13 8.49785 L 112.117 8.48675 L 111.086 8.48948 L 110.038 8.51378 L 108.961 8.5724 L 107.849 8.67347 L 106.721 8.81655 L 105.58 9.00046 L 105.811 8.96318 L 104.656 9.18822 L 103.478 9.45636 L 102.284 9.76611 L 101.083 10.1142 L 99.8913 10.4933 L 98.6926 10.9051 L 97.4899 11.346 L 96.2888 11.8139 L 95.0778 12.3142 L 93.8457 12.8499 L 92.6002 13.4169 L 91.323 14.0214 L 90.0104 14.6615 L 88.6608 15.336 L 88.8486 15.2397 L 87.4459 15.9577 L 86.0021 16.7163 L 84.523 17.515 L 82.9995 18.3546 L 81.4426 19.2221 L 79.8711 20.0999 L 79.7775 20.1479 L 79.6737 20.1647 L 79.5699 20.1483 L 79.4763 20.1006 L 79.4018 20.0263 L 79.3539 19.9327 L 79.3374 19.8289 L 79.3537 19.7251 L 79.4013 19.6314 L 79.4753 19.557 L 80.939 18.5311 L 82.4049 17.5389 L 83.8586 16.6034 L 85.2849 15.7322 L 86.6868 14.9162 L 88.0543 14.15 L 88.2421 14.054 L 89.5758 13.331 L 90.8754 12.6512 L 92.1435 12.0186 L 93.3839 11.436 L 94.614 10.8942 L 95.8248 10.3932 L 97.0263 9.92646 L 98.2293 9.48681 L 99.4283 9.07585 L 100.62 8.69711 L 101.821 8.34906 L 103.015 8.03927 L 104.193 7.77108 L 105.348 7.54599 L 105.578 7.50931 L 106.718 7.32538 L 107.846 7.18229 L 108.958 7.08123 L 110.035 7.02261 L 111.083 6.99831 L 112.115 6.99559 L 113.127 7.00669 L 114.122 7.03099 L 115.113 7.07064 L 116.094 7.12726 L 117.071 7.20309 L 118.047 7.2987 L 119.017 7.41319 L 119.98 7.54516 L 120.21 7.58125 L 121.182 7.73098 L 122.157 7.89603 L 123.138 8.07708 L 124.125 8.27687 L 125.112 8.49745 L 126.098 8.74282 L 127.097 9.02135 L 128.094 9.33566 L 129.084 9.69061 L 130.063 10.0909 L 131.023 10.5378 L 131.231 10.6434 L 132.168 11.1404 L 133.092 11.6953 L 133.985 12.3005 L 134.847 12.9534 L 135.684 13.6498 L 136.493 14.3755 L 137.277 15.1202 L 137.443 15.2845 L 138.216 16.0546 L 138.975 16.8446 L 139.728 17.6618 L 140.479 18.504 L 141.231 19.3676 L 141.983 20.2426 L 142.735 21.1302 L 143.478 22.029 L 144.21 22.9398 L 144.929 23.859 L 145.639 24.7916 L 146.339 25.739 L 147.033 26.7088 L 147.718 27.7039 L 148.393 28.7363 L 149.058 29.81 L 149.702 30.9158 L 150.316 32.0472 L 150.422 32.2547 L 151.013 33.4218 L 151.572 34.6096 L 152.104 35.8229 L 152.614 37.0728 L 153.098 38.3523 L 153.556 39.6492 L 153.993 40.9685 L 154.406 42.2873 L 154.793 43.6026 L 155.153 44.9162 L 155.476 46.2221 L 155.751 47.521 L 155.788 47.7512 L 156.008 49.063 L 156.162 50.3795 L 156.25 51.7133 L 156.284 53.0761 L 156.277 54.4553 L 156.233 55.839 L 156.143 57.2423 L 156 58.6548 L 155.964 58.8851 L 155.762 60.3145 L 155.5 61.7688 L 155.18 63.2344 L 154.806 64.6997 L 154.377 66.1755 L 153.898 67.6473 L 153.369 69.1231 L 152.791 70.5931 L 152.168 72.052 L 151.499 73.4931 L 151.394 73.7011 L 150.677 75.128 L 149.908 76.5387 L 149.079 77.9412 L 148.19 79.3366 L 147.242 80.7282 L 146.244 82.1102 L 145.197 83.4858 L 144.1 84.8517 L 142.944 86.2176 L 141.725 87.5908 L 140.457 88.9606 L 139.147 90.3181 L 138.983 90.4833 L 137.621 91.8358 L 136.231 93.1604 L 134.816 94.4516 L 133.37 95.7097 L 131.902 96.927 L 130.417 98.1021 L 128.901 99.2472 L 127.375 100.343 L 125.841 101.389 L 124.293 102.396 L 122.736 103.363 L 121.17 104.293 L 119.579 105.197 L 117.982 106.065 L 117.774 106.171 L 116.171 107.008 L 114.558 107.82 L 112.942 108.604 L 111.323 109.353 L 109.684 110.067 L 108.047 110.73 L 106.41 111.336 L 104.768 111.888 L 103.128 112.386 L 101.502 112.83 L 99.8888 113.221 L 98.2906 113.557 L 96.6988 113.841 L 96.4685 113.879 L 94.8836 114.112 L 93.2949 114.298 L 91.7024 114.443 L 90.1125 114.55 L 88.5445 114.617 L 86.9736 114.65 L 85.3919 114.658 L 83.8045 114.653 L 82.2315 114.637 L 80.6623 114.613 L 79.105 114.577 L 77.5366 114.53 L 75.9611 114.472 L 74.4016 114.4 L 72.8669 114.311 L 71.3419 114.199 L 69.8486 114.06 L 68.3834 113.883 L 68.1531 113.847 L 66.7066 113.628 L 65.29 113.367 L 63.9098 113.067 L 62.5498 112.727 L 61.2246 112.352 L 59.9318 111.941 L 58.66 111.491 L 57.41 111.002 L 56.1851 110.468 L 54.9747 109.884 L 54.767 109.778 L 53.5871 109.151 L 52.4325 108.482 L 51.2942 107.773 L 50.177 107.036 L 49.0817 106.28 L 47.9899 105.498 L 46.9129 104.702 L 45.8548 103.89 L 44.8184 103.057 L 43.8135 102.202 L 42.8423 101.318 L 42.677 101.153 L 41.7295 100.219 L 40.8215 99.2379 L 39.9513 98.2084 L 39.1102 97.1295 L 38.2957 96.0116 L 37.5059 94.8626 L 36.7313 93.6804 L 35.984 92.4934 L 35.2651 91.3122 L 34.5728 90.138 L 33.9099 88.9809 L 33.2757 87.8438 L 32.664 86.7084 L 32.5578 86.5009 L 31.9797 85.3674 L 31.4409 84.2175 L 30.9446 83.0343 L 30.4983 81.8178 L 30.1059 80.5683 L 29.763 79.2696 L 29.4705 77.9365 L 29.2257 76.5699 L 29.189 76.3397 L 28.9894 74.9369 L 28.8375 73.5104 L 28.7381 72.0706 L 28.6898 70.6069 L 28.6821 69.1376 L 28.7069 67.66 L 28.763 66.1681 L 28.8527 64.6717 L 28.9785 63.1745 L 29.1422 61.6617 L 29.3428 60.1531 L 29.3789 59.9228 L 29.6186 58.4148 L 29.9002 56.9044 L 30.225 55.4082 L 30.595 53.9325 L 31.0166 52.4482 L 31.4908 50.9509 L 32.0152 49.443 L 32.5823 47.9383 L 33.1837 46.4507 L 33.8095 44.9991 L 34.469 43.5615 L 34.5746 43.3537 L 35.275 41.9257 L 36.0218 40.5059 L 36.8111 39.1015 L 37.638 37.71 L 38.4921 36.3363 L 39.371 34.9766 L 40.276 33.6326 L 41.2143 32.3043 L 42.1825 31.0004 L 43.1731 29.7282 L 44.1676 28.5071 L 45.1698 27.3345 L 46.1711 26.2266 L 47.1796 25.1745 L 47.3439 25.0093 L 48.3691 23.9957 L 49.4073 23.0202 L 50.455 22.0878 L 51.5238 21.1905 L 52.5989 20.3379 L 53.6791 19.5254 L 54.7674 18.7458 L 55.8628 18.0016 L 56.9682 17.2939 L 58.0958 16.6149 L 59.2316 15.9709 L 60.3782 15.3592 L 60.5858 15.253 L 61.7501 14.6692 L 62.9202 14.1186 L 64.0847 13.6046 L 65.2523 13.1212 L 66.414 12.6697 L 67.5785 12.2441 L 68.7532 11.8397 L 69.9295 11.4557 L 71.1045 11.0908 L 72.2918 10.7396 L 73.4747 10.408 L 74.6442 10.1006 L 75.7932 9.81963 L 76.9268 9.56498 L 78.0423 9.33657 L 79.1341 9.13267 L 79.3644 9.09599 L 80.4125 8.91732 L 81.4245 8.75936 L 82.4149 8.61679 L 83.3831 8.48556 L 84.3308 8.36297 L 85.273 8.24512 L 86.2044 8.12949 L 87.1307 8.01351 L 88.0562 7.89606 L 88.9715 7.77908 L 89.8744 7.66418 L 90.7803 7.55035 L 91.6824 7.43913 L 92.5797 7.33207 L 93.4696 7.231 L 94.3394 7.14158 L 95.1761 7.0706 L 95.9767 7.02264 L 96.7319 6.99691 L 97.4474 6.98758 L 98.1287 6.98821 L 98.7696 6.99569 L 99.3624 7.01031 L 99.9087 7.03308 L 100.408 7.06498 L 100.871 7.10451 L 101.311 7.14772 L 101.732 7.1912 L 102.135 7.23461 L 102.524 7.28132 L 102.897 7.3347 L 103.258 7.39725 L 103.481 7.43216 L 103.817 7.5045 L 104.126 7.58883 L 104.402 7.68655 L 104.651 7.80007 L 104.879 7.93116 L 105.09 8.0785 L 105.232 8.15065 L 105.419 8.30065 L 105.599 8.4483 L 105.773 8.58458 L 105.88 8.69124 L 106.058 8.82546 Z" style='fill:rgba(255,255,255,1); stroke:none' />



</svg>