<svg viewBox="21.936 -2.62745 143.017 125.51" width="743.238586" height="652.258118" xmlns="http://www.w3.org/2000/svg" xmlns:xlink="http://www.w3.org/1999/xlink">

<path d="M 92.0855 10.8072 L 92.0855 10.8072 L 92.2307 10.881 L 92.3461 10.9957 L 92.4204 11.1406 L 92.4464 11.3014 L 92.421 11.4623 L 92.3471 11.6075 L 92.232 11.7229 L 92.087 11.7972 L 91.9263 11.8233 L 91.7654 11.7979 L 91.3034 11.6105 L 90.8386 11.4446 L 90.3844 11.3136 L 89.9508 11.2181 L 89.5424 11.1457 L 89.1515 11.0826 L 88.7687 11.0205 L 88.3839 10.9519 L 87.9911 10.8724 L 87.5868 10.7782 L 87.1725 10.6682 L 86.7458 10.5434 L 86.3095 10.4103 L 85.8632 10.2773 L 85.3972 10.1522 L 84.8989 10.0428 L 84.359 9.95664 L 84.5893 9.99303 L 83.995 9.93252 L 83.3506 9.89766 L 82.6588 9.89074 L 81.9151 9.91888 L 81.1176 9.99437 L 80.2802 10.1254 L 80.5105 10.0881 L 79.637 10.2736 L 78.7313 10.5071 L 77.794 10.7834 L 76.8162 11.1 L 75.7938 11.4538 L 74.7355 11.8398 L 73.6376 12.2603 L 72.5254 12.7072 L 71.4181 13.1724 L 70.3127 13.6543 L 69.1991 14.1542 L 68.0776 14.6706 L 66.9496 15.2055 L 65.8273 15.7567 L 64.7158 16.3257 L 64.9233 16.2193 L 63.8111 16.8173 L 62.6915 17.4564 L 61.5758 18.1376 L 60.4539 18.8685 L 59.3283 19.641 L 58.2072 20.4428 L 57.0894 21.27 L 55.9777 22.1221 L 54.8868 22.9923 L 53.8083 23.8867 L 52.7506 24.7994 L 51.7242 25.7248 L 50.7232 26.6719 L 49.7384 27.6526 L 49.9033 27.4874 L 48.9369 28.5001 L 47.979 29.5559 L 47.0372 30.6502 L 46.1201 31.7795 L 45.2233 32.956 L 44.3425 34.186 L 43.4857 35.4553 L 42.6492 36.7744 L 41.8448 38.1351 L 41.0884 39.5181 L 40.3839 40.9126 L 40.4898 40.7046 L 39.8269 42.1195 L 39.2098 43.5351 L 38.6394 44.9452 L 38.1134 46.3527 L 37.6323 47.7575 L 37.193 49.1685 L 36.7917 50.587 L 36.43 51.9993 L 36.1037 53.4204 L 35.8119 54.8438 L 35.5545 56.2607 L 35.3281 57.6823 L 35.3645 57.452 L 35.1648 58.8864 L 34.9915 60.3189 L 34.8412 61.7634 L 34.7141 63.2162 L 34.6127 64.6694 L 34.5371 66.1323 L 34.4864 67.6118 L 34.4588 69.09 L 34.453 70.5764 L 34.4726 72.0626 L 34.528 73.5352 L 34.6281 74.9941 L 34.7721 76.437 L 34.9545 77.8459 L 35.1766 79.2301 L 35.1394 78.9999 L 35.4017 80.3499 L 35.7044 81.6594 L 36.0498 82.9402 L 36.4398 84.1994 L 36.871 85.4249 L 37.3471 86.628 L 37.8655 87.8029 L 38.4217 88.9385 L 38.3153 88.731 L 38.9093 89.8314 L 39.5433 90.9058 L 40.2162 91.9527 L 40.9305 92.9688 L 41.6799 93.9373 L 42.4593 94.8473 L 43.2733 95.7052 L 43.1081 95.5409 L 43.9615 96.3597 L 44.8496 97.1442 L 45.7729 97.8968 L 46.7248 98.6079 L 47.6997 99.2697 L 48.701 99.8877 L 49.7351 100.476 L 50.7983 101.048 L 51.8916 101.618 L 53.0039 102.188 L 54.126 102.754 L 55.2625 103.313 L 55.0545 103.208 L 56.2097 103.755 L 57.3733 104.276 L 58.5563 104.769 L 59.7548 105.23 L 60.9658 105.657 L 62.1996 106.054 L 63.4607 106.423 L 64.7345 106.761 L 66.0315 107.073 L 67.3431 107.357 L 68.6572 107.614 L 69.9789 107.848 L 71.3147 108.065 L 72.6523 108.267 L 74.0049 108.462 L 73.7745 108.426 L 75.1368 108.616 L 76.5002 108.802 L 77.8696 108.987 L 79.2468 109.168 L 80.6193 109.345 L 82.0017 109.515 L 83.3863 109.677 L 84.764 109.828 L 86.1435 109.964 L 87.5305 110.086 L 88.9134 110.188 L 90.3062 110.267 L 91.7048 110.322 L 93.1006 110.354 L 94.4991 110.365 L 95.9042 110.356 L 97.3017 110.321 L 98.7038 110.251 L 100.105 110.146 L 101.496 110.01 L 102.885 109.842 L 104.275 109.642 L 105.653 109.412 L 105.423 109.449 L 106.799 109.186 L 108.166 108.894 L 109.512 108.576 L 110.845 108.234 L 112.168 107.868 L 113.466 107.482 L 114.749 107.075 L 116.014 106.648 L 117.253 106.207 L 118.474 105.75 L 119.68 105.273 L 120.863 104.782 L 122.033 104.272 L 123.185 103.743 L 124.312 103.198 L 125.422 102.63 L 125.214 102.736 L 126.319 102.142 L 127.412 101.526 L 128.502 100.882 L 129.583 100.208 L 130.648 99.5076 L 131.7 98.7806 L 132.739 98.031 L 133.745 97.2738 L 134.726 96.5083 L 135.673 95.7404 L 136.582 94.9691 L 137.462 94.1768 L 138.325 93.3427 L 139.178 92.4603 L 139.013 92.6255 L 139.862 91.6928 L 140.703 90.7222 L 141.526 89.7241 L 142.332 88.6977 L 143.116 87.6461 L 143.869 86.5848 L 144.596 85.5052 L 145.299 84.4109 L 145.975 83.3061 L 146.629 82.1858 L 147.263 81.049 L 147.863 79.9118 L 148.429 78.7693 L 148.323 78.9771 L 148.846 77.8421 L 149.321 76.7287 L 149.747 75.6338 L 150.128 74.5508 L 150.462 73.4821 L 150.754 72.4237 L 151.007 71.3743 L 151.228 70.3167 L 151.428 69.2311 L 151.61 68.1135 L 151.772 66.9845 L 151.736 67.2148 L 151.881 66.0819 L 152.007 64.9491 L 152.114 63.8105 L 152.202 62.6679 L 152.273 61.5197 L 152.329 60.37 L 152.371 59.2153 L 152.401 58.0572 L 152.419 56.8951 L 152.43 55.7377 L 152.434 54.5879 L 152.427 53.4566 L 152.399 52.3488 L 152.338 51.2703 L 152.237 50.2126 L 152.098 49.1653 L 151.928 48.1292 L 151.964 48.3594 L 151.771 47.351 L 151.554 46.363 L 151.316 45.3961 L 151.059 44.4518 L 150.782 43.5223 L 150.483 42.6026 L 150.167 41.7005 L 149.831 40.8045 L 149.482 39.9138 L 149.123 39.0318 L 148.752 38.1569 L 148.367 37.2933 L 147.968 36.4541 L 147.549 35.6302 L 147.655 35.8377 L 147.219 35.0287 L 146.767 34.2379 L 146.301 33.4626 L 145.822 32.7014 L 145.34 31.9613 L 144.854 31.2337 L 144.367 30.5193 L 143.883 29.823 L 143.399 29.1426 L 142.908 28.475 L 142.407 27.8248 L 141.896 27.1958 L 141.373 26.5906 L 140.838 26.0052 L 140.288 25.4336 L 139.715 24.8652 L 139.88 25.0301 L 139.293 24.4695 L 138.695 23.9174 L 138.091 23.3747 L 137.483 22.8422 L 136.878 22.3242 L 136.276 21.8203 L 135.672 21.3252 L 135.05 20.8295 L 134.407 20.3374 L 133.749 19.8585 L 133.078 19.4004 L 132.398 18.9652 L 131.712 18.5533 L 131.023 18.1642 L 130.336 17.7993 L 130.544 17.9051 L 129.852 17.563 L 129.149 17.2398 L 128.43 16.9335 L 127.707 16.6437 L 126.977 16.3639 L 126.249 16.093 L 125.527 15.8323 L 124.801 15.5804 L 124.062 15.3357 L 123.314 15.0993 L 122.552 14.8676 L 121.786 14.6418 L 121.017 14.4215 L 120.243 14.2069 L 119.451 13.9975 L 118.65 13.7961 L 117.841 13.6035 L 117.033 13.4204 L 116.229 13.2486 L 115.434 13.089 L 114.647 12.9413 L 113.866 12.8029 L 113.085 12.6688 L 112.319 12.5379 L 111.571 12.4087 L 110.839 12.2788 L 110.119 12.1466 L 109.419 12.0118 L 108.728 11.8735 L 108.045 11.7314 L 107.369 11.5858 L 106.696 11.4372 L 106.027 11.288 L 105.369 11.1428 L 104.716 11.0033 L 104.065 10.8712 L 103.415 10.749 L 102.761 10.637 L 102.101 10.5367 L 102.331 10.5731 L 101.673 10.4874 L 101.014 10.4183 L 100.357 10.3673 L 99.7052 10.3335 L 99.0528 10.3137 L 98.3944 10.304 L 97.7349 10.3019 L 97.0673 10.3096 L 96.3949 10.3353 L 95.7242 10.3883 L 95.0525 10.4717 L 94.3766 10.5829 L 94.6069 10.5457 L 93.931 10.6785 L 93.248 10.8304 L 92.5626 10.9986 L 91.8799 11.1802 L 91.1956 11.3742 L 90.5046 11.5791 L 89.8116 11.7928 L 89.1095 12.0194 L 88.4001 12.2603 L 87.6856 12.5145 L 86.9616 12.7834 L 86.2261 13.0693 L 85.4879 13.3718 L 84.7463 13.6951 L 84.0109 14.0369 L 84.1904 13.9448 L 83.4542 14.3092 L 82.7243 14.6899 L 81.9904 15.0857 L 81.2429 15.4894 L 80.4772 15.8966 L 80.3832 15.9448 L 80.279 15.9616 L 80.1748 15.9452 L 80.0808 15.8973 L 80.006 15.8226 L 79.9579 15.7287 L 79.9413 15.6245 L 79.9577 15.5202 L 80.0054 15.4262 L 80.0798 15.3514 L 80.7396 14.7989 L 81.3969 14.2714 L 82.0607 13.7795 L 82.7372 13.3254 L 83.4311 12.9031 L 83.6106 12.8113 L 84.3274 12.4126 L 85.0533 12.0409 L 85.7786 11.6992 L 86.505 11.3855 L 87.2239 11.1009 L 87.9363 10.8404 L 88.6454 10.5986 L 89.3479 10.373 L 90.0413 10.1607 L 90.7326 9.95669 L 91.4171 9.76302 L 92.0998 9.58153 L 92.7852 9.41337 L 93.4681 9.26138 L 94.144 9.12848 L 94.3742 9.09179 L 95.0501 8.98052 L 95.7218 8.89714 L 96.3926 8.84414 L 97.0649 8.81847 L 97.7325 8.8107 L 98.392 8.81282 L 99.0504 8.82251 L 99.7029 8.8423 L 100.355 8.87612 L 101.012 8.92709 L 101.671 8.99623 L 102.329 9.08196 L 102.559 9.11804 L 103.219 9.21835 L 103.874 9.3303 L 104.523 9.4525 L 105.174 9.58457 L 105.827 9.72415 L 106.485 9.86929 L 107.155 10.0185 L 107.827 10.1671 L 108.503 10.3127 L 109.186 10.4548 L 109.877 10.5931 L 110.578 10.7279 L 111.297 10.8601 L 112.03 10.99 L 112.777 11.1192 L 113.543 11.2501 L 114.324 11.3842 L 115.105 11.5226 L 115.892 11.6703 L 116.687 11.8299 L 117.492 12.0017 L 118.3 12.1848 L 119.108 12.3774 L 119.91 12.5788 L 120.701 12.7882 L 121.475 13.0028 L 122.244 13.2231 L 123.01 13.4489 L 123.772 13.6806 L 124.52 13.917 L 125.259 14.1617 L 125.985 14.4136 L 126.707 14.6743 L 127.436 14.9452 L 128.165 15.225 L 128.888 15.5148 L 129.607 15.8211 L 130.311 16.1443 L 130.519 16.2499 L 131.21 16.592 L 131.898 16.9569 L 132.586 17.3461 L 133.272 17.7579 L 133.952 18.1932 L 134.623 18.6513 L 135.282 19.1301 L 135.924 19.6222 L 136.546 20.1179 L 137.15 20.6131 L 137.752 21.117 L 138.357 21.6349 L 138.965 22.1674 L 139.569 22.7102 L 140.167 23.2623 L 140.754 23.8229 L 140.919 23.9872 L 141.492 24.5556 L 142.043 25.1272 L 142.578 25.7126 L 143.1 26.3178 L 143.612 26.9468 L 144.112 27.597 L 144.604 28.2646 L 145.088 28.945 L 145.571 29.6413 L 146.058 30.3557 L 146.545 31.0833 L 147.027 31.8234 L 147.505 32.5846 L 147.972 33.3599 L 148.423 34.1507 L 148.86 34.9598 L 148.966 35.1673 L 149.385 35.9912 L 149.784 36.8304 L 150.17 37.694 L 150.541 38.569 L 150.9 39.4509 L 151.249 40.3416 L 151.584 41.2376 L 151.9 42.1397 L 152.199 43.0594 L 152.476 43.9889 L 152.733 44.9333 L 152.972 45.9001 L 153.188 46.8881 L 153.382 47.8966 L 153.419 48.1268 L 153.589 49.1629 L 153.728 50.2102 L 153.829 51.2679 L 153.89 52.3465 L 153.918 53.4542 L 153.925 54.5856 L 153.921 55.7354 L 153.911 56.8928 L 153.892 58.0548 L 153.862 59.213 L 153.82 60.3677 L 153.765 61.5173 L 153.694 62.6656 L 153.606 63.8081 L 153.499 64.9467 L 153.372 66.0795 L 153.228 67.2124 L 153.191 67.4428 L 153.029 68.5718 L 152.847 69.6894 L 152.647 70.7751 L 152.425 71.8326 L 152.173 72.882 L 151.881 73.9404 L 151.546 75.0091 L 151.166 76.0922 L 150.739 77.187 L 150.265 78.3004 L 149.742 79.4354 L 149.636 79.6434 L 149.07 80.7859 L 148.47 81.9232 L 147.837 83.0599 L 147.182 84.1803 L 146.506 85.285 L 145.803 86.3794 L 145.076 87.4589 L 144.323 88.5202 L 143.539 89.5718 L 142.734 90.5982 L 141.91 91.5963 L 141.07 92.567 L 140.221 93.4996 L 140.056 93.6648 L 139.203 94.5472 L 138.34 95.3814 L 137.46 96.1737 L 136.551 96.9449 L 135.604 97.7129 L 134.623 98.4784 L 133.617 99.2355 L 132.578 99.9852 L 131.526 100.712 L 130.461 101.412 L 129.38 102.086 L 128.29 102.731 L 127.197 103.347 L 126.092 103.941 L 125.885 104.047 L 124.774 104.615 L 123.648 105.161 L 122.496 105.689 L 121.326 106.199 L 120.143 106.69 L 118.937 107.167 L 117.716 107.625 L 116.477 108.066 L 115.212 108.492 L 113.929 108.899 L 112.631 109.285 L 111.308 109.651 L 109.975 109.993 L 108.629 110.311 L 107.262 110.603 L 105.886 110.866 L 105.655 110.903 L 104.278 111.133 L 102.887 111.333 L 101.498 111.501 L 100.107 111.637 L 98.7062 111.742 L 97.3041 111.812 L 95.9066 111.847 L 94.5015 111.856 L 93.103 111.845 L 91.7072 111.814 L 90.3086 111.758 L 88.9158 111.679 L 87.5329 111.577 L 86.1459 111.456 L 84.7664 111.319 L 83.3887 111.168 L 82.0041 111.006 L 80.6217 110.836 L 79.2491 110.659 L 77.872 110.478 L 76.5026 110.294 L 75.1392 110.107 L 73.7769 109.917 L 73.5466 109.881 L 72.1939 109.686 L 70.8563 109.483 L 69.5206 109.267 L 68.1989 109.033 L 66.8848 108.776 L 65.5731 108.491 L 64.2762 108.18 L 63.0024 107.842 L 61.7412 107.473 L 60.5074 107.076 L 59.2965 106.648 L 58.098 106.188 L 56.9149 105.694 L 55.7514 105.173 L 54.5961 104.627 L 53.4596 104.067 L 52.3376 103.501 L 52.1298 103.395 L 51.0175 102.825 L 49.9242 102.256 L 48.861 101.684 L 47.8269 101.095 L 46.8256 100.477 L 45.8507 99.8152 L 44.8987 99.104 L 43.9755 98.3514 L 43.0874 97.567 L 42.234 96.7481 L 42.0688 96.5832 L 41.2547 95.7253 L 40.4753 94.8153 L 39.7259 93.8468 L 39.0117 92.8307 L 38.3388 91.7838 L 37.7048 90.7094 L 37.1107 89.609 L 37.0045 89.4014 L 36.4483 88.2658 L 35.9299 87.0909 L 35.4538 85.8878 L 35.0226 84.6623 L 34.6325 83.4031 L 34.2872 82.1223 L 33.9845 80.8128 L 33.7222 79.4628 L 33.6855 79.2325 L 33.4633 77.8483 L 33.281 76.4394 L 33.137 74.9965 L 33.0369 73.5376 L 32.9815 72.0649 L 32.9618 70.5788 L 32.9677 69.0924 L 32.9953 67.6142 L 33.0459 66.1347 L 33.1215 64.6717 L 33.2229 63.2186 L 33.35 61.7658 L 33.5004 60.3213 L 33.6737 58.8888 L 33.8733 57.4543 L 33.9094 57.224 L 34.1358 55.8024 L 34.3932 54.3855 L 34.685 52.9621 L 35.0113 51.541 L 35.373 50.1287 L 35.7743 48.7101 L 36.2136 47.2992 L 36.6947 45.8944 L 37.2207 44.4869 L 37.7911 43.0768 L 38.4082 41.6612 L 39.0711 40.2463 L 39.1767 40.0385 L 39.8812 38.644 L 40.6376 37.261 L 41.442 35.9003 L 42.2784 34.5812 L 43.1353 33.3118 L 44.0161 32.0819 L 44.9128 30.9054 L 45.83 29.7761 L 46.7718 28.6818 L 47.7297 27.626 L 48.6961 26.6133 L 48.8604 26.448 L 49.8452 25.4673 L 50.8462 24.5202 L 51.8726 23.5948 L 52.9303 22.6822 L 54.0088 21.7877 L 55.0997 20.9176 L 56.2114 20.0654 L 57.3292 19.2382 L 58.4503 18.4365 L 59.5759 17.6639 L 60.6978 16.933 L 61.8135 16.2519 L 62.9331 15.6127 L 64.0453 15.0147 L 64.2529 14.9085 L 65.3644 14.3395 L 66.4867 13.7883 L 67.6147 13.2534 L 68.7362 12.737 L 69.8498 12.2371 L 70.9552 11.7552 L 72.0625 11.29 L 73.1747 10.8431 L 74.2726 10.4225 L 75.3309 10.0366 L 76.3533 9.6828 L 77.3311 9.36622 L 78.2684 9.08994 L 79.1741 8.85639 L 80.0476 8.6709 L 80.2779 8.63422 L 81.1152 8.50323 L 81.9127 8.42779 L 82.6564 8.39971 L 83.3483 8.40667 L 83.9927 8.44143 L 84.5869 8.50153 L 84.8174 8.53763 L 85.3576 8.62296 L 85.8563 8.73094 L 86.3227 8.85484 L 86.7688 8.98846 L 87.2032 9.12752 L 87.6249 9.26781 L 88.0301 9.4061 L 88.421 9.54164 L 88.7966 9.67433 L 89.1606 9.80737 L 89.5189 9.94516 L 89.8827 10.0924 L 90.2643 10.2476 L 90.6778 10.4053 L 91.126 10.5551 L 91.6011 10.689 L 92.0855 10.8072 Z" style='fill:rgba(255,255,255,1); stroke:none' />



</svg>