<svg id="visual" viewBox="0 0 900 600" width="900" height="600" xmlns="http://www.w3.org/2000/svg" xmlns:xlink="http://www.w3.org/1999/xlink" version="1.1"><path d="M0 462L6.3 458.3C12.7 454.7 25.3 447.3 37.8 447.2C50.3 447 62.7 454 75.2 455.3C87.7 456.7 100.3 452.3 112.8 452.2C125.3 452 137.7 456 150.2 454.2C162.7 452.3 175.3 444.7 187.8 441C200.3 437.3 212.7 437.7 225.2 441.7C237.7 445.7 250.3 453.3 262.8 455.7C275.3 458 287.7 455 300.2 453.3C312.7 451.7 325.3 451.3 337.8 453.2C350.3 455 362.7 459 375.2 459C387.7 459 400.3 455 412.8 451.3C425.3 447.7 437.7 444.3 450 444.2C462.3 444 474.7 447 487.2 447.7C499.7 448.3 512.3 446.7 525 444.2C537.7 441.7 550.3 438.3 562.8 436.7C575.3 435 587.7 435 600.2 435.3C612.7 435.7 625.3 436.3 637.8 440C650.3 443.7 662.7 450.3 675.2 452C687.7 453.7 700.3 450.3 712.8 450.5C725.3 450.7 737.7 454.3 750.2 452.3C762.7 450.3 775.3 442.7 787.8 439.3C800.3 436 812.7 437 825.2 438.8C837.7 440.7 850.3 443.3 862.8 443.8C875.3 444.3 887.7 442.7 893.8 441.8L900 441L900 601L893.8 601C887.7 601 875.3 601 862.8 601C850.3 601 837.7 601 825.2 601C812.7 601 800.3 601 787.8 601C775.3 601 762.7 601 750.2 601C737.7 601 725.3 601 712.8 601C700.3 601 687.7 601 675.2 601C662.7 601 650.3 601 637.8 601C625.3 601 612.7 601 600.2 601C587.7 601 575.3 601 562.8 601C550.3 601 537.7 601 525 601C512.3 601 499.7 601 487.2 601C474.7 601 462.3 601 450 601C437.7 601 425.3 601 412.8 601C400.3 601 387.7 601 375.2 601C362.7 601 350.3 601 337.8 601C325.3 601 312.7 601 300.2 601C287.7 601 275.3 601 262.8 601C250.3 601 237.7 601 225.2 601C212.7 601 200.3 601 187.8 601C175.3 601 162.7 601 150.2 601C137.7 601 125.3 601 112.8 601C100.3 601 87.7 601 75.2 601C62.7 601 50.3 601 37.8 601C25.3 601 12.7 601 6.3 601L0 601Z" fill="#ffffff" stroke-linecap="round" stroke-linejoin="miter"></path></svg>